<svg id="Layer_1" enable-background="new 0 0 512 512" viewBox="0 0 512 512" xmlns="http://www.w3.org/2000/svg" width="300" height="300" version="1.1" xmlns:xlink="http://www.w3.org/1999/xlink" xmlns:svgjs="http://svgjs.dev/svgjs"><g width="100%" height="100%" transform="matrix(1,0,0,1,0,0)"><path d="m495.18 306.51c-12.48-17.07-36.52-20.82-53.6-8.37l-67.33 49.2c-4.77-6.83-11.7-12.04-19.74-14.61l-136.57-43.71c-20.1-6.44-40.08-3.75-57.77 7.77l-68.89 44.83-5.09-7.14c-4.73-6.64-14.02-8.19-20.73-3.46l-49.85 35.52c-6.65 4.8-8.17 14.09-3.4 20.72l84.47 118.51c2.9 4.06 7.49 6.22 12.13 6.22 2.98 0 5.99-.89 8.59-2.75l49.82-35.5c6.66-4.77 8.22-14.06 3.47-20.72l-4.21-5.91 5.12-3.34c10.39-6.77 20.73-7.58 35.69-2.8l94.25 30.16c4.98 1.59 9.99 2.38 14.93 2.38 9.87 0 19.43-3.15 27.85-9.32l142.5-104.09c17.1-12.47 20.84-36.52 8.36-53.59zm-386.13 189.06-83.18-116.7 47.97-34.18 8.65 12.14c.01.01.01.02.02.03.08.12.17.24.26.36l74.25 104.17zm368.36-148.37-142.51 104.1c-8.53 6.25-18.38 7.84-28.47 4.62l-94.26-30.16c-19.58-6.25-34.78-4.82-49.28 4.63l-5.69 3.7-56.63-79.44 68.32-44.46c13.53-8.81 28.8-10.87 44.17-5.94l136.58 43.71c5.72 1.83 10.33 5.78 13.03 11.06.09.18.19.36.27.54.36.76.69 1.54.97 2.35.02.05.05.1.07.16 1.56 4.52 1.63 9.39.15 14.03-3.74 11.74-16.37 18.24-28.13 14.49l-86.43-27.67c-4.21-1.35-8.7.97-10.05 5.18-1.35 4.2.97 8.7 5.18 10.05l86.44 27.67c3.87 1.23 7.79 1.82 11.65 1.82 16.26 0 31.39-10.41 36.58-26.67 1.94-6.07 2.32-12.36 1.22-18.44l70.43-51.46c9.96-7.26 23.99-5.07 31.27 4.89 7.26 9.94 5.08 23.96-4.88 31.24zm-327.7-216.51c0 23.45 6.21 45.47 17.07 64.52.24.57.56 1.09.92 1.58 22.73 38.61 64.73 64.58 112.69 64.58 33.52 0 65.44-12.81 89.58-35.57 3.9 5.49 10.3 9.09 17.54 9.09h21.63c11.86 0 21.52-9.65 21.52-21.51v-4.63l3.28 3.28c8.39 8.39 22.05 8.39 30.44 0l15.32-15.32c8.34-8.38 8.34-22.02-.02-30.43l-3.25-3.24h4.61c11.86 0 21.52-9.65 21.52-21.52v-21.66c0-11.86-9.65-21.51-21.52-21.51h-4.64l3.3-3.29c8.34-8.38 8.34-22.02-.02-30.43l-15.3-15.27c-8.39-8.39-22.05-8.39-30.44 0l-3.28 3.28v-4.64c0-11.88-9.65-21.54-21.52-21.54h-21.63c-7.23 0-13.63 3.6-17.53 9.1-24.13-22.74-56.05-35.55-89.59-35.55-47.96 0-89.95 25.97-112.69 64.58-.36.49-.67 1.01-.92 1.57-10.86 19.05-17.07 41.08-17.07 64.53zm183.61-82.29c-4.12-9.99-8.96-18.63-14.34-25.72 13.89 4.96 26.76 12.58 37.87 22.53-7.61-3.67-16.93-2.6-23.53 3.19zm-16.35 46.67 3.28 3.28h-4.63c-11.86 0-21.52 9.65-21.52 21.51v2.83h-5.73v-45.35h22.48c-.72 6.31 1.31 12.89 6.12 17.73zm-150.99 43.61h46.81c.48 16.15 2.42 31.42 5.57 45.35h-39.47c-7.25-13.72-11.79-29.07-12.91-45.35zm62.8 0h43.61v45.35h-37.7c-3.28-13.4-5.39-28.64-5.91-45.35zm43.61 61.34v43.81c-12.48-4.75-24.64-20.33-32.96-43.81zm47.88 0 .65.65c-8.19 22.86-20.05 38.43-32.55 43.17v-43.82zm13.05 12.95c6.59 5.78 15.87 6.86 23.47 3.22-11.1 9.93-23.95 17.53-37.8 22.49 5.38-7.09 10.21-15.73 14.33-25.71zm-16.37-46.68c-4.81 4.84-6.83 11.42-6.09 17.74h-22.49v-45.35h5.73v2.83c0 11.86 9.65 21.52 21.52 21.52h4.6zm3.3-104.94h-31.87v-43.82c12.5 4.74 24.35 20.3 32.55 43.15zm-47.86-43.81v43.81h-32.96c8.32-23.49 20.48-39.06 32.96-43.81zm0 59.8v45.35h-43.61c.52-16.71 2.63-31.95 5.91-45.35zm-59.6 45.35h-46.81c1.13-16.28 5.67-31.63 12.91-45.35h39.47c-3.15 13.93-5.09 29.2-5.57 45.35zm-23.7 77.33h33.59c4.9 15.36 11.4 28.51 19.09 38.66-21.09-7.56-39.34-21.14-52.68-38.66zm192.89-152.02c0-3.06 2.48-5.56 5.53-5.56h21.63c3.05 0 5.53 2.49 5.53 5.56v12.58c0 3.42 2.18 6.46 5.42 7.57 2.24.76 4.57 1.73 7.15 2.96 3.06 1.46 6.71.84 9.1-1.56l8.9-8.9c2.16-2.16 5.67-2.16 7.83 0l15.29 15.26c2.16 2.17 2.16 5.69.02 7.84l-8.93 8.9c-2.42 2.41-3.04 6.1-1.54 9.17 1.13 2.3 2.1 4.64 2.98 7.15 1.12 3.21 4.15 5.35 7.54 5.35h12.59c3.05 0 5.53 2.48 5.53 5.53v21.66c0 3.05-2.48 5.53-5.53 5.53h-12.59c-3.4 0-6.42 2.15-7.54 5.35-.88 2.5-1.87 4.88-2.97 7.09-1.52 3.08-.91 6.78 1.52 9.21l8.91 8.88c2.16 2.17 2.16 5.69.02 7.84l-15.31 15.31c-2.16 2.16-5.67 2.16-7.83 0l-8.9-8.9c-2.4-2.4-6.04-3.02-9.1-1.56-2.36 1.13-4.79 2.13-7.22 2.98-3.2 1.12-5.35 4.15-5.35 7.54v12.59c0 3.05-2.48 5.53-5.53 5.53h-21.63c-3.05 0-5.53-2.48-5.53-5.53v-12.59c0-3.4-2.15-6.42-5.35-7.54-2.52-.88-4.94-1.88-7.19-2.97-1.11-.54-2.3-.8-3.48-.8-2.08 0-4.12.81-5.65 2.34l-8.9 8.9c-2.16 2.16-5.67 2.16-7.83 0l-14.33-14.33c-.01-.01-.01-.01-.02-.02l-.94-.94c-2.16-2.17-2.16-5.69-.02-7.84l8.9-8.9c2.41-2.41 3.02-6.07 1.54-9.13-1.11-2.29-2.11-4.7-2.97-7.16-1.12-3.21-4.15-5.35-7.54-5.35h-12.59c-3.05 0-5.53-2.48-5.53-5.53v-21.66c0-3.05 2.48-5.53 5.53-5.53h12.59c3.4 0 6.42-2.15 7.54-5.35.88-2.5 1.87-4.88 2.97-7.09 1.52-3.07.91-6.77-1.51-9.2l-8.91-8.91c-2.16-2.17-2.16-5.69-.02-7.84l.67-.66c.2-.18.39-.37.57-.57l6.09-6.08c.13-.13.26-.25.39-.39l7.6-7.59c2.16-2.16 5.67-2.16 7.83 0l8.9 8.9c2.41 2.41 6.07 3.03 9.13 1.54 2.42-1.17 4.82-2.16 7.12-2.95 3.24-1.1 5.42-4.14 5.42-7.57zm-140.2-25.31c-7.69 10.14-14.2 23.3-19.09 38.66h-33.59c13.33-17.52 31.58-31.1 52.68-38.66zm105.76 108c0 27.99 22.77 50.77 50.77 50.77 28.01 0 50.8-22.78 50.8-50.77 0-28.01-22.79-50.8-50.8-50.8-28 0-50.77 22.79-50.77 50.8zm50.77-34.81c19.19 0 34.81 15.62 34.81 34.81 0 19.18-15.62 34.78-34.81 34.78-19.18 0-34.78-15.6-34.78-34.78-.01-19.2 15.6-34.81 34.78-34.81z" fill="url(#SvgjsLinearGradient1380)" fill-opacity="1" data-original-color="#000000ff" stroke="none" stroke-opacity="1"/></g><defs><linearGradient id="SvgjsLinearGradient1380"><stop stop-opacity="1" stop-color="#355c7d" offset="0"/><stop stop-opacity="1" stop-color="#c06c84" offset="1"/></linearGradient></defs></svg>
