<?xml version="1.0" encoding="iso-8859-1"?>
<!-- Generator: Adobe Illustrator 19.0.0, SVG Export Plug-In . SVG Version: 6.00 Build 0)  -->
<svg version="1.1" id="Capa_1" xmlns="http://www.w3.org/2000/svg" xmlns:xlink="http://www.w3.org/1999/xlink" x="0px" y="0px"
	 viewBox="0 0 511.997 511.997" style="enable-background:new 0 0 511.997 511.997;" xml:space="preserve">
<g>
	<g>
		<path d="M402.164,89.924c-0.016-0.021-0.03-0.044-0.046-0.065c-0.56-0.757-1.144-1.499-1.739-2.235
			c-0.094-0.116-0.181-0.237-0.276-0.352c-0.689-0.839-1.4-1.665-2.136-2.474c-11.515-12.674-27.274-20.105-44.377-20.925
			c-17.107-0.823-33.502,5.07-46.176,16.584c-12.674,11.514-20.105,27.274-20.925,44.377c-0.82,17.104,5.069,33.502,16.584,46.176
			c0.76,0.838,1.542,1.65,2.34,2.441c0.198,0.196,0.403,0.38,0.603,0.573c0.617,0.597,1.239,1.186,1.876,1.756
			c0.193,0.172,0.39,0.335,0.584,0.504c0.671,0.585,1.349,1.159,2.04,1.714c0.142,0.113,0.286,0.222,0.429,0.335
			c0.771,0.607,1.552,1.197,2.347,1.766c0.062,0.045,0.125,0.088,0.188,0.132c9.882,7.025,21.568,11.111,33.969,11.705
			c1.051,0.051,2.097,0.075,3.143,0.075c13.9,0,27.205-4.443,38.266-12.728c0.01-0.008,0.02-0.014,0.03-0.022
			c0.71-0.533,1.408-1.086,2.1-1.65c0.106-0.086,0.215-0.166,0.32-0.253c0.785-0.649,1.558-1.317,2.317-2.007
			c0.81-0.735,1.596-1.489,2.363-2.258c0.106-0.107,0.205-0.219,0.31-0.326c0.663-0.675,1.315-1.359,1.945-2.058
			c0.015-0.016,0.028-0.033,0.043-0.05c9.826-10.937,15.552-24.801,16.265-39.685C415.265,116.093,410.894,101.749,402.164,89.924z
			 M383.365,157.341c-0.004,0.004-0.008,0.009-0.012,0.014c-0.437,0.487-0.893,0.963-1.355,1.434
			c-0.067,0.068-0.129,0.139-0.197,0.207c-0.526,0.529-1.068,1.047-1.626,1.555c-0.558,0.507-1.126,0.997-1.703,1.47
			c-0.076,0.062-0.155,0.119-0.231,0.181c-0.511,0.414-1.027,0.82-1.552,1.208c-0.003,0.002-0.005,0.004-0.008,0.006
			c-16.738,12.352-40.035,11.252-55.536-2.608c-0.027-0.024-0.055-0.047-0.082-0.071c-0.468-0.421-0.926-0.859-1.379-1.303
			c-0.085-0.083-0.174-0.161-0.258-0.245c-0.528-0.525-1.046-1.066-1.552-1.624c-0.99-1.09-1.92-2.22-2.788-3.386
			c-5.641-7.579-8.665-16.679-8.674-26.184c-0.001-0.731,0.017-1.464,0.052-2.2c0.423-8.826,3.405-17.132,8.548-24.075
			c1.715-2.317,3.669-4.48,5.849-6.46c7.38-6.704,16.431-10.435,25.671-11.263c1.32-0.118,2.644-0.177,3.967-0.177
			c12.007,0,23.974,4.861,32.664,14.428c0.507,0.558,0.996,1.126,1.469,1.702c0.066,0.08,0.126,0.163,0.191,0.244
			c0.41,0.507,0.813,1.017,1.196,1.537c0.009,0.012,0.017,0.024,0.026,0.036C398.393,118.525,397.27,141.846,383.365,157.341z"/>
	</g>
</g>
<g>
	<g>
		<path d="M471.022,105.222l-16.791-4.527c-1.62-6.187-3.794-12.212-6.498-18.015l7.809-11.906c2.5-3.813,2.105-8.834-0.961-12.209
			L429.493,30.95c-3.065-3.374-8.027-4.248-12.06-2.124l-12.6,6.635c-5.519-3.248-11.309-5.989-17.31-8.193l-2.9-17.146
			c-0.784-4.633-4.688-8.096-9.382-8.32l-37.27-1.787c-4.694-0.23-8.909,2.85-10.134,7.385l-4.527,16.791
			c-6.186,1.62-12.212,3.794-18.015,6.498L293.39,22.88c-3.813-2.502-8.834-2.107-12.209,0.961l-27.618,25.091
			c-3.374,3.065-4.248,8.026-2.124,12.061l6.635,12.6c-1.21,2.056-2.325,4.161-3.393,6.289l-14.233-15.666
			c-3.065-3.375-8.027-4.246-12.061-2.124l-12.6,6.635c-5.518-3.248-11.308-5.988-17.31-8.192l-2.9-17.146
			c-0.784-4.633-4.688-8.096-9.382-8.32l-37.27-1.787c-4.689-0.213-8.909,2.848-10.134,7.385l-4.527,16.79
			c-6.186,1.62-12.211,3.794-18.015,6.499l-11.906-7.809c-3.813-2.501-8.833-2.107-12.209,0.961L64.519,82.194
			c-3.374,3.065-4.248,8.026-2.124,12.061l6.635,12.6c-3.248,5.519-5.989,11.309-8.193,17.31l-17.146,2.9
			c-4.633,0.784-8.096,4.688-8.32,9.382l-1.787,37.27c-0.228,4.693,2.846,8.91,7.383,10.134l16.791,4.527
			c1.62,6.187,3.794,12.212,6.499,18.015l-7.81,11.906c-2.5,3.813-2.105,8.834,0.961,12.209L82.5,258.124
			c3.065,3.373,8.024,4.246,12.061,2.124l12.6-6.634c5.517,3.247,11.308,5.988,17.309,8.192l2.9,17.147
			c0.784,4.633,4.688,8.096,9.382,8.32l37.27,1.787c0.161,0.008,0.322,0.012,0.482,0.012c4.497,0,8.47-3.017,9.651-7.396
			l4.527-16.791c6.186-1.62,12.212-3.794,18.015-6.499l11.906,7.81c3.812,2.5,8.833,2.106,12.209-0.961l27.619-25.091
			c3.374-3.065,4.248-8.026,2.124-12.061l-6.636-12.602c1.206-2.052,2.334-4.15,3.401-6.279l14.225,15.657
			c3.065,3.373,8.025,4.246,12.06,2.124l12.6-6.634c5.517,3.246,11.307,5.987,17.31,8.192l2.9,17.146
			c0.784,4.633,4.688,8.096,9.382,8.32l37.27,1.787c0.161,0.008,0.322,0.012,0.482,0.012c4.497,0,8.47-3.016,9.651-7.396
			l4.527-16.791c6.187-1.62,12.212-3.794,18.015-6.498l11.906,7.809c3.812,2.5,8.833,2.105,12.209-0.961l27.618-25.091
			c3.374-3.066,4.248-8.026,2.124-12.061l-6.635-12.6c3.248-5.518,5.988-11.308,8.193-17.31l17.147-2.9
			c4.633-0.784,8.096-4.688,8.32-9.382l1.787-37.271C478.632,110.662,475.558,106.446,471.022,105.222z M246.99,182.742
			c-0.592,0.68-1.095,1.441-1.488,2.269l-0.011,0.017c-0.003,0.004-0.005,0.009-0.008,0.014c-0.205,0.314-0.384,0.637-0.55,0.965
			c-0.044,0.086-0.086,0.173-0.127,0.26c-0.157,0.333-0.301,0.67-0.419,1.014c-0.002,0.005-0.003,0.01-0.005,0.015
			c-0.117,0.344-0.208,0.694-0.286,1.046c-0.02,0.09-0.039,0.18-0.056,0.27c-0.069,0.355-0.125,0.712-0.155,1.07
			c0,0.002-0.001,0.003-0.001,0.004c-2.423,7.018-5.72,13.676-9.816,19.815c-2.034,3.049-2.237,6.966-0.53,10.209l5.707,10.838
			l-16.153,14.675l-10.242-6.718c-3.063-2.008-6.984-2.182-10.214-0.448c-7.548,4.052-15.626,6.955-24.012,8.63
			c-3.726,0.744-6.707,3.535-7.696,7.203l-3.992,14.808l-21.194-1.017l-2.558-15.121c-0.634-3.746-3.336-6.809-6.973-7.906
			c-8.183-2.468-15.946-6.131-23.074-10.888c-3.048-2.032-6.965-2.236-10.21-0.53l-10.838,5.707L77.419,222.79l6.718-10.241
			c2.01-3.065,2.183-6.984,0.448-10.214c-4.052-7.548-6.955-15.626-8.63-24.012c-0.745-3.726-3.535-6.707-7.203-7.696l-14.808-3.992
			l1.017-21.195l15.121-2.558c3.746-0.634,6.809-3.336,7.906-6.973c2.468-8.183,6.131-15.946,10.888-23.076
			c2.034-3.049,2.237-6.966,0.53-10.209L83.7,91.789l16.153-14.676l10.241,6.717c3.064,2.009,6.981,2.182,10.214,0.449
			c7.551-4.053,15.629-6.956,24.011-8.63c3.726-0.744,6.708-3.535,7.697-7.203l3.992-14.808l21.194,1.017l2.558,15.121
			c0.634,3.746,3.336,6.809,6.973,7.906c8.184,2.468,15.948,6.131,23.075,10.888c3.049,2.033,6.966,2.236,10.21,0.53l10.838-5.707
			l8.444,9.295l-6.563,1.11c-4.633,0.784-8.096,4.688-8.32,9.382l-1.787,37.27c-0.026,0.535-0.003,1.063,0.054,1.582
			c-1.059-3.395-2.412-6.692-4.031-9.87c-0.057-0.113-0.113-0.227-0.171-0.34c-0.304-0.589-0.618-1.172-0.941-1.752
			c-0.133-0.24-0.27-0.477-0.406-0.714c-0.3-0.522-0.599-1.044-0.914-1.558c-0.235-0.384-0.482-0.76-0.725-1.14
			c-0.405-0.631-0.819-1.256-1.247-1.875c-0.327-0.474-0.657-0.945-0.997-1.41c-0.225-0.307-0.456-0.611-0.686-0.915
			c-0.379-0.499-0.766-0.993-1.161-1.482c-0.203-0.251-0.403-0.504-0.61-0.753c-0.609-0.732-1.229-1.456-1.872-2.164
			c-0.643-0.707-1.303-1.394-1.973-2.069c-0.219-0.221-0.442-0.437-0.664-0.654c-0.463-0.453-0.931-0.899-1.406-1.337
			c-0.26-0.24-0.52-0.481-0.783-0.716c-0.494-0.441-0.997-0.871-1.504-1.296c-0.444-0.373-0.894-0.737-1.348-1.098
			c-0.424-0.337-0.849-0.674-1.281-0.999c-0.423-0.319-0.853-0.627-1.284-0.936c-0.284-0.203-0.57-0.405-0.857-0.603
			c-0.487-0.337-0.977-0.669-1.473-0.992c-0.147-0.096-0.297-0.187-0.445-0.281c-1.854-1.184-3.764-2.268-5.724-3.251
			c-0.052-0.026-0.105-0.053-0.157-0.079c-2.797-1.392-5.693-2.575-8.673-3.541c-0.021-0.007-0.043-0.014-0.064-0.021
			c-0.732-0.236-1.468-0.461-2.209-0.671c-0.058-0.017-0.117-0.032-0.176-0.048c-1.944-0.545-3.919-1-5.922-1.362
			c-0.563-0.102-1.126-0.203-1.693-0.29c-0.4-0.061-0.803-0.113-1.205-0.166c-0.576-0.078-1.153-0.149-1.732-0.211
			c-0.34-0.036-0.68-0.073-1.021-0.104c-0.928-0.085-1.856-0.157-2.785-0.201c-1.023-0.049-2.054-0.073-3.087-0.073
			c-10.186-0.01-20.058,2.385-28.969,6.918c-0.15,0.076-0.3,0.15-0.449,0.227c-0.627,0.325-1.247,0.663-1.864,1.01
			c-0.276,0.155-0.551,0.31-0.824,0.469c-0.526,0.306-1.048,0.618-1.566,0.94c-0.362,0.224-0.72,0.454-1.078,0.685
			c-0.445,0.288-0.888,0.578-1.326,0.878c-0.43,0.294-0.854,0.598-1.277,0.903c-0.37,0.267-0.743,0.531-1.109,0.806
			c-0.505,0.38-1.001,0.775-1.496,1.171c-0.283,0.226-0.57,0.445-0.849,0.676c-0.765,0.633-1.518,1.282-2.257,1.952
			c-0.009,0.008-0.018,0.015-0.026,0.023c-0.927,0.842-1.818,1.714-2.688,2.601c-0.223,0.227-0.438,0.461-0.658,0.692
			c-0.677,0.71-1.336,1.432-1.976,2.168c-0.189,0.217-0.378,0.434-0.564,0.654c-0.773,0.912-1.522,1.84-2.239,2.79
			c-0.02,0.026-0.041,0.052-0.061,0.078c-7.663,10.174-12.116,22.394-12.739,35.394c-0.542,11.306,1.865,22.296,6.873,32.114
			c0.048,0.093,0.094,0.188,0.142,0.281c0.312,0.604,0.633,1.202,0.965,1.796c0.121,0.218,0.246,0.434,0.37,0.65
			c0.31,0.54,0.619,1.079,0.945,1.611c0.192,0.314,0.396,0.622,0.593,0.933c0.452,0.709,0.915,1.411,1.396,2.105
			c0.317,0.458,0.636,0.915,0.965,1.366c0.23,0.314,0.465,0.624,0.701,0.934c0.375,0.493,0.757,0.981,1.146,1.464
			c0.206,0.255,0.409,0.51,0.618,0.763c0.608,0.732,1.228,1.454,1.869,2.161c0.627,0.69,1.273,1.36,1.928,2.021
			c0.212,0.215,0.427,0.426,0.642,0.637c0.467,0.459,0.942,0.909,1.422,1.352c0.314,0.29,0.628,0.579,0.947,0.862
			c0.498,0.441,1,0.876,1.511,1.301c0.424,0.355,0.856,0.699,1.288,1.042c0.201,0.159,0.403,0.316,0.606,0.473
			c8.081,6.249,17.491,10.438,27.584,12.261c0.571,0.104,1.142,0.206,1.716,0.295c0.392,0.06,0.787,0.11,1.181,0.163
			c0.587,0.079,1.175,0.151,1.764,0.214c0.332,0.035,0.663,0.071,0.996,0.102c0.931,0.085,1.862,0.158,2.792,0.202
			c1.021,0.049,2.051,0.074,3.082,0.074c0.003,0,0.007,0,0.01,0c0.017,0,0.034,0.001,0.051,0.001c10.271,0,20.213-2.437,29.17-7.045
			c0.045-0.023,0.089-0.048,0.134-0.071c0.764-0.396,1.523-0.804,2.272-1.231c0.141-0.08,0.279-0.165,0.419-0.246
			c0.655-0.38,1.307-0.766,1.95-1.17c0.243-0.153,0.481-0.314,0.722-0.47c0.541-0.35,1.081-0.7,1.613-1.067
			c0.345-0.238,0.682-0.49,1.023-0.735c0.426-0.307,0.855-0.609,1.275-0.927c0.459-0.348,0.908-0.713,1.359-1.074
			c0.298-0.239,0.601-0.469,0.896-0.713c0.746-0.619,1.48-1.255,2.201-1.909c0.673-0.611,1.332-1.247,1.985-1.893
			c0.291-0.288,0.575-0.58,0.861-0.873c0.314-0.323,0.624-0.649,0.932-0.98c0.377-0.403,0.752-0.806,1.117-1.217
			c0.005-0.005,0.009-0.01,0.013-0.015c9.027-10.166,14.538-22.823,15.806-36.463l0.009-0.091c0.074-0.796,0.127-1.593,0.17-2.39
			c0.008-0.152,0.026-0.303,0.033-0.455c0.008-0.166,0.005-0.331,0.012-0.496c0.03-0.747,0.049-1.495,0.053-2.242
			c0.003-0.462-0.006-0.923-0.013-1.384c-0.007-0.408-0.016-0.816-0.031-1.224c-0.158-4.655-0.803-9.234-1.937-13.673
			c1.224,2.573,3.522,4.583,6.423,5.365l16.79,4.527c1.62,6.186,3.794,12.211,6.5,18.015L246.99,182.742z M205.56,160.173
			c0.015,0.687,0.012,1.374-0.004,2.061c-0.004,0.18-0.006,0.359-0.013,0.539c-0.029,0.797-0.076,1.594-0.148,2.389
			c-0.002,0.025-0.003,0.05-0.005,0.075l-0.042,0.382c-0.123,1.222-0.301,2.455-0.525,3.656l-0.135,0.688
			c-0.775,3.827-2.061,7.541-3.819,11.039c-0.286,0.569-0.588,1.133-0.896,1.686c-0.62,1.11-1.291,2.197-1.992,3.23
			c-0.615,0.904-1.256,1.778-1.896,2.587c-0.177,0.223-0.353,0.444-0.524,0.653c-0.591,0.718-1.207,1.411-1.835,2.086
			c-0.21,0.224-0.42,0.447-0.635,0.667c-0.195,0.201-0.391,0.402-0.59,0.598c-0.447,0.442-0.9,0.88-1.368,1.305
			c-0.533,0.484-1.075,0.949-1.625,1.402c-0.14,0.116-0.285,0.225-0.426,0.339c-0.422,0.339-0.847,0.673-1.278,0.994
			c-0.149,0.111-0.3,0.219-0.451,0.328c-0.444,0.322-0.891,0.637-1.344,0.941c-0.127,0.085-0.255,0.169-0.382,0.253
			c-0.504,0.33-1.013,0.65-1.527,0.958c-0.078,0.047-0.156,0.094-0.234,0.141c-11.188,6.596-24.594,7.784-36.549,3.752
			c-0.177-0.06-0.356-0.115-0.532-0.177c-0.519-0.182-1.034-0.379-1.547-0.581c-0.308-0.122-0.613-0.249-0.918-0.378
			c-0.456-0.192-0.912-0.381-1.361-0.589c-0.693-0.321-1.379-0.659-2.054-1.015c-0.312-0.164-0.617-0.342-0.926-0.514
			c-0.496-0.277-0.987-0.561-1.472-0.857c-0.273-0.166-0.546-0.334-0.815-0.507c-0.655-0.42-1.301-0.854-1.934-1.309
			c-0.082-0.059-0.166-0.112-0.247-0.171c-0.724-0.528-1.428-1.084-2.12-1.656c-0.186-0.154-0.369-0.314-0.553-0.472
			c-0.525-0.449-1.039-0.91-1.543-1.384c-0.186-0.175-0.374-0.348-0.557-0.527c-0.651-0.634-1.291-1.282-1.904-1.958
			c-0.675-0.743-1.314-1.513-1.934-2.296c-0.137-0.173-0.274-0.347-0.408-0.521c-0.614-0.798-1.208-1.609-1.764-2.443l-0.001-0.001
			c-0.569-0.855-1.101-1.733-1.608-2.624c-0.07-0.123-0.141-0.246-0.21-0.37c-0.508-0.913-0.989-1.841-1.431-2.789
			c-0.389-0.836-0.748-1.682-1.081-2.536c-0.019-0.049-0.038-0.099-0.058-0.148c-4.725-12.241-3.716-26.181,2.717-37.604
			c0.039-0.069,0.077-0.138,0.116-0.206c0.445-0.779,0.912-1.548,1.407-2.303c0.005-0.007,0.009-0.015,0.014-0.022
			c0.493-0.75,1.012-1.485,1.552-2.205c0.063-0.083,0.129-0.164,0.193-0.247c0.449-0.59,0.914-1.168,1.393-1.735
			c0.15-0.178,0.303-0.354,0.456-0.529c0.423-0.485,0.858-0.961,1.303-1.428c0.162-0.17,0.321-0.343,0.486-0.511
			c0.598-0.61,1.21-1.208,1.844-1.784c0.498-0.453,1.006-0.892,1.521-1.32c0.165-0.137,0.336-0.266,0.503-0.401
			c0.351-0.283,0.703-0.567,1.061-0.839c0.226-0.171,0.457-0.332,0.686-0.499c0.304-0.221,0.606-0.444,0.914-0.656
			c0.28-0.193,0.565-0.377,0.849-0.563c0.259-0.17,0.517-0.343,0.78-0.507c0.338-0.211,0.682-0.414,1.025-0.616
			c0.209-0.123,0.418-0.249,0.629-0.369c0.401-0.227,0.807-0.445,1.215-0.659c0.154-0.081,0.306-0.164,0.461-0.243
			c0.463-0.236,0.932-0.463,1.404-0.683c0.1-0.047,0.2-0.095,0.301-0.141c0.516-0.236,1.038-0.461,1.564-0.677
			c0.055-0.023,0.11-0.046,0.165-0.068c1.41-0.572,2.938-1.092,4.556-1.55c1.278-0.361,2.448-0.644,3.581-0.863
			c0.704-0.137,1.464-0.261,2.314-0.38c1.369-0.189,2.717-0.317,4.001-0.379c0.703-0.033,1.41-0.05,2.115-0.05
			c0.71,0,1.42,0.018,2.122,0.051c0.012,0,0.023,0.002,0.035,0.002c0.626,0.03,1.248,0.079,1.869,0.135
			c0.247,0.022,0.494,0.049,0.741,0.076c0.387,0.041,0.771,0.089,1.156,0.141c0.282,0.038,0.565,0.073,0.846,0.117
			c0.424,0.065,0.846,0.141,1.267,0.218c0.132,0.024,0.266,0.044,0.398,0.07c0.694,0.135,1.385,0.285,2.076,0.453
			c0.432,0.105,0.861,0.222,1.289,0.34c0.14,0.039,0.281,0.076,0.421,0.116c0.441,0.126,0.879,0.26,1.315,0.399
			c0.115,0.037,0.229,0.075,0.344,0.113c1.436,0.474,2.843,1.019,4.215,1.634c0.063,0.028,0.127,0.055,0.19,0.084
			c0.422,0.192,0.84,0.392,1.255,0.597c0.13,0.064,0.259,0.13,0.388,0.195c0.405,0.205,0.809,0.413,1.208,0.631
			c0.043,0.023,0.084,0.048,0.127,0.072c0.756,0.416,1.496,0.857,2.226,1.317c0.193,0.122,0.387,0.241,0.579,0.366
			c0.298,0.195,0.593,0.395,0.886,0.597c0.246,0.169,0.49,0.341,0.732,0.515c0.26,0.187,0.52,0.374,0.777,0.566
			c0.367,0.276,0.729,0.56,1.088,0.848c0.224,0.18,0.447,0.362,0.668,0.546c0.382,0.319,0.76,0.643,1.132,0.975
			c0.173,0.154,0.342,0.312,0.512,0.469c0.334,0.308,0.663,0.621,0.989,0.94c0.149,0.146,0.3,0.292,0.447,0.441
			c0.46,0.464,0.914,0.935,1.355,1.421c0.001,0.001,0.003,0.003,0.004,0.004c0.004,0.004,0.008,0.009,0.012,0.013
			c0.441,0.485,0.865,0.981,1.282,1.482c0.137,0.164,0.269,0.331,0.403,0.497c0.285,0.352,0.563,0.708,0.836,1.067
			c0.143,0.189,0.286,0.377,0.426,0.568c0.28,0.381,0.551,0.767,0.817,1.156c0.107,0.156,0.219,0.309,0.324,0.467
			c0.336,0.502,0.657,1.012,0.97,1.526c0.156,0.257,0.305,0.517,0.456,0.777c0.165,0.283,0.327,0.567,0.485,0.854
			c0.167,0.302,0.331,0.606,0.49,0.912c0.12,0.23,0.236,0.463,0.351,0.695c0.171,0.342,0.343,0.684,0.504,1.031
			c0.306,0.655,0.593,1.315,0.864,1.981c0.327,0.803,0.628,1.616,0.906,2.437c0.009,0.025,0.017,0.051,0.025,0.076
			c1.373,4.083,2.138,8.375,2.277,12.692C205.553,159.885,205.557,160.029,205.56,160.173z M457.031,143.632l-15.121,2.558
			c-3.745,0.634-6.809,3.335-7.906,6.972c-2.469,8.186-6.133,15.949-10.888,23.077c-2.034,3.049-2.237,6.966-0.53,10.209
			l5.706,10.837L412.14,211.96l-10.241-6.717c-3.064-2.008-6.981-2.182-10.214-0.449c-7.548,4.052-15.627,6.955-24.012,8.63
			c-3.726,0.744-6.707,3.535-7.696,7.203l-3.992,14.808l-21.194-1.017l-2.558-15.121c-0.634-3.745-3.335-6.809-6.972-7.906
			c-8.188-2.47-15.951-6.133-23.076-10.888c-3.048-2.032-6.965-2.236-10.21-0.53l-10.838,5.707l-14.675-16.153l6.717-10.243
			c1.005-1.532,1.551-3.279,1.629-5.046s-0.313-3.554-1.18-5.168c-4.053-7.55-6.956-15.628-8.63-24.011
			c-0.744-3.725-3.535-6.708-7.203-7.697l-14.808-3.992l1.017-21.194l14.997-2.536c0.003,0,0.006-0.001,0.009-0.002l0.115-0.019
			c0.109-0.018,0.211-0.055,0.318-0.077c0.232-0.05,0.463-0.101,0.689-0.167c3.278-0.912,5.902-3.426,6.899-6.728
			c0.031-0.103,0.067-0.204,0.099-0.306c0.001-0.002,0.001-0.003,0.002-0.005c0.049-0.159,0.102-0.317,0.153-0.476l0.164-0.507
			c0.002-0.006,0.003-0.013,0.005-0.02c2.456-7.698,5.964-15.017,10.465-21.763c2.034-3.049,2.237-6.966,0.53-10.209l-5.706-10.837
			l16.153-14.676l10.241,6.717c3.064,2.008,6.981,2.181,10.214,0.449c7.548-4.052,15.627-6.955,24.012-8.63
			c3.726-0.744,6.707-3.535,7.696-7.203l3.992-14.808l21.194,1.017l2.558,15.121c0.634,3.746,3.336,6.809,6.973,7.906
			c8.183,2.468,15.946,6.131,23.076,10.888c3.047,2.034,6.965,2.235,10.209,0.53l10.837-5.706l14.676,16.153l-6.717,10.241
			c-2.01,3.065-2.182,6.984-0.449,10.214c4.052,7.549,6.955,15.627,8.63,24.012c0.744,3.726,3.535,6.707,7.203,7.696l14.808,3.992
			L457.031,143.632z"/>
	</g>
</g>
<g>
	<g>
		<path d="M498.233,437.298c-1.005-0.004-53.786-0.206-71.353-0.206c-0.998,0-2.719-1.482-3.516-2.543
			c-0.206-0.322-0.295-0.417-0.558-0.734c-9.038-10.861-19.38-24.792-22.06-30.313c2.671-5.593,13.195-19.75,22.408-30.771
			c0.216-0.259,0.419-0.528,0.607-0.808c0.014-0.02,1.693-1.951,4.832-1.951c18.367,0,69.113-0.188,69.587-0.19
			c5.298,0,9.704-2.361,12.088-6.478c2.375-4.102,2.299-9.352-0.199-13.704c-19.313-33.625-55.368-54.513-94.098-54.513
			c-44.077,0-83.457,26.561-100.167,66.804H179.029c-15.413-31.203-47.569-52.717-84.662-52.717C42.333,309.174,0,351.507,0,403.541
			s42.333,94.368,94.368,94.368c37.092,0,69.249-21.515,84.662-52.717h136.778c16.712,40.243,56.09,66.803,100.167,66.803
			c38.809,0,74.903-20.953,94.191-54.679c2.341-4.09,2.326-9.366-0.038-13.443C507.746,439.763,503.301,437.306,498.233,437.298z
			 M168.639,407.258c-0.02,0.393-0.059,0.782-0.084,1.174c-0.055,0.839-0.109,1.679-0.192,2.511
			c-0.046,0.464-0.112,0.924-0.167,1.386c-0.089,0.75-0.175,1.502-0.286,2.245c-0.076,0.511-0.172,1.018-0.259,1.527
			c-0.117,0.684-0.231,1.368-0.366,2.045c-0.111,0.556-0.241,1.108-0.365,1.661c-0.138,0.617-0.274,1.236-0.427,1.847
			c-0.151,0.599-0.319,1.193-0.485,1.789c-0.155,0.556-0.307,1.114-0.474,1.665c-0.189,0.621-0.395,1.238-0.6,1.855
			c-0.174,0.523-0.346,1.048-0.531,1.566c-0.214,0.6-0.446,1.195-0.676,1.79c-10.773,27.809-37.791,47.59-69.36,47.59
			C53.361,477.909,20,444.547,20,403.541s33.361-74.367,74.368-74.367c31.561,0,58.575,19.772,69.353,47.572
			c0.234,0.604,0.468,1.208,0.686,1.817c0.182,0.51,0.351,1.026,0.522,1.541c0.208,0.625,0.417,1.249,0.608,1.878
			c0.165,0.544,0.315,1.095,0.468,1.645c0.168,0.601,0.338,1.202,0.49,1.807c0.152,0.606,0.287,1.22,0.424,1.832
			c0.125,0.557,0.256,1.113,0.368,1.674c0.135,0.674,0.248,1.356,0.365,2.037c0.087,0.511,0.184,1.021,0.26,1.534
			c0.111,0.742,0.197,1.492,0.286,2.241c0.055,0.463,0.121,0.925,0.167,1.39c0.083,0.831,0.137,1.67,0.191,2.508
			c0.025,0.392,0.065,0.782,0.084,1.175c0.061,1.231,0.094,2.47,0.094,3.716S168.7,406.026,168.639,407.258z M415.974,491.995
			c-37.943,0-71.617-24.127-83.792-60.036c-1.379-4.066-5.194-6.789-9.469-6.789c-0.089,0-0.18,0.001-0.27,0.004l-0.353,0.011
			l-135.863,0.007c0.01-0.045,0.019-0.09,0.03-0.134c0.388-1.657,0.733-3.331,1.032-5.02c0.053-0.298,0.099-0.596,0.149-0.894
			c0.09-0.538,0.178-1.076,0.259-1.617c0.053-0.357,0.101-0.714,0.15-1.072c0.067-0.488,0.132-0.977,0.192-1.467
			c0.045-0.374,0.088-0.748,0.129-1.123c0.012-0.108,0.026-0.216,0.037-0.324h87.206c5.522,0,10-4.477,10-10c0-5.522-4.478-10-10-10
			h-87.206c-0.012-0.109-0.026-0.218-0.038-0.327c-0.041-0.372-0.083-0.744-0.128-1.116c-0.06-0.493-0.125-0.985-0.193-1.476
			c-0.049-0.354-0.096-0.709-0.149-1.063c-0.082-0.547-0.171-1.091-0.262-1.634c-0.049-0.292-0.094-0.585-0.146-0.876
			c-0.3-1.694-0.645-3.371-1.034-5.033c-0.01-0.042-0.018-0.084-0.028-0.125h135.631l0.585,0.018
			c4.392,0.128,8.331-2.633,9.739-6.785c12.175-35.909,45.848-60.036,83.792-60.036c27.663,0,53.654,13.068,70.267,34.737
			c-16.259,0.057-44.846,0.148-57.645,0.148c-12.34,0-19.182,7.791-20.978,10.163c-1.136,1.366-6.879,8.313-12.709,16.12
			c-12.116,16.222-14.551,22.467-14.551,27.285c0,2.871,0.001,10.486,26.849,42.794c1.753,2.38,8.703,10.757,19.674,10.757
			c12.419,0,42.516,0.102,59.363,0.162C469.632,478.928,443.648,491.995,415.974,491.995z"/>
	</g>
</g>
<g>
	<g>
		<path d="M318.184,401.586c-0.129-0.64-0.319-1.271-0.569-1.87c-0.25-0.6-0.56-1.18-0.92-1.729c-0.37-0.54-0.78-1.06-1.25-1.521
			c-0.46-0.46-0.971-0.88-1.511-1.24c-0.55-0.359-1.13-0.67-1.73-0.92c-0.601-0.25-1.23-0.439-1.87-0.569
			c-1.29-0.261-2.62-0.261-3.91,0c-0.64,0.13-1.27,0.319-1.87,0.569c-0.6,0.25-1.19,0.561-1.729,0.92
			c-0.55,0.36-1.061,0.78-1.521,1.24c-0.46,0.46-0.88,0.98-1.24,1.521c-0.359,0.55-0.67,1.13-0.92,1.729
			c-0.25,0.6-0.439,1.23-0.569,1.87c-0.13,0.64-0.2,1.3-0.2,1.95c0,0.65,0.07,1.31,0.2,1.96c0.13,0.64,0.319,1.27,0.569,1.87
			c0.25,0.6,0.561,1.18,0.92,1.729c0.36,0.54,0.78,1.061,1.24,1.521c0.46,0.46,0.971,0.88,1.521,1.239
			c0.54,0.36,1.13,0.671,1.729,0.921c0.601,0.25,1.23,0.439,1.87,0.569c0.64,0.13,1.3,0.19,1.95,0.19c0.66,0,1.31-0.061,1.96-0.19
			c0.64-0.13,1.27-0.319,1.87-0.569s1.18-0.561,1.73-0.921c0.54-0.359,1.051-0.779,1.511-1.239c0.47-0.46,0.88-0.98,1.25-1.521
			c0.359-0.55,0.67-1.13,0.92-1.729c0.25-0.601,0.44-1.23,0.569-1.87c0.13-0.65,0.19-1.31,0.19-1.96
			C318.374,402.886,318.313,402.225,318.184,401.586z"/>
	</g>
</g>
<g>
	<g>
		<path d="M94.368,358.628c-24.767,0-44.914,20.148-44.914,44.913c0,24.767,20.148,44.914,44.914,44.914
			c24.766,0,44.913-20.148,44.913-44.914C139.281,378.775,119.133,358.628,94.368,358.628z M94.368,428.455
			c-13.738,0-24.915-11.177-24.915-24.915c0-13.737,11.177-24.914,24.915-24.914c13.737,0,24.914,11.177,24.914,24.914
			C119.281,417.279,108.104,428.455,94.368,428.455z"/>
	</g>
</g>
<g>
</g>
<g>
</g>
<g>
</g>
<g>
</g>
<g>
</g>
<g>
</g>
<g>
</g>
<g>
</g>
<g>
</g>
<g>
</g>
<g>
</g>
<g>
</g>
<g>
</g>
<g>
</g>
<g>
</g>
</svg>
