<svg id="Layer_1" enable-background="new 0 0 512 512" viewBox="0 0 512 512" xmlns="http://www.w3.org/2000/svg"><path d="m378.639 287.273c4.288.766 8.509-.969 11.012-4.532 2.502-3.564 2.704-8.122.525-11.896l-39.9-69.108c1.135-1.237 2.592-2.206 4.312-2.802 10.629-3.68 19.268-12.935 23.11-24.756 3.842-11.823 2.292-24.389-4.144-33.614-2.552-3.658-2.552-8.202-.001-11.858 6.437-9.225 7.986-21.79 4.146-33.612-3.841-11.823-12.48-21.079-23.111-24.76-4.214-1.459-6.885-5.135-6.97-9.593-.215-11.246-6.347-22.322-16.403-29.63-10.057-7.307-22.485-9.716-33.25-6.446-4.266 1.298-8.588-.107-11.278-3.664-6.784-8.972-18.256-14.328-30.687-14.329-.001 0 0 0-.001 0-12.431 0-23.903 5.356-30.688 14.328-2.69 3.557-7.011 4.962-11.278 3.665-10.762-3.271-23.192-.862-33.249 6.445s-16.19 18.383-16.405 29.629c-.085 4.46-2.756 8.137-6.969 9.595-10.629 3.679-19.27 12.934-23.111 24.756-3.842 11.823-2.293 24.39 4.144 33.614 2.552 3.658 2.552 8.202.001 11.858-6.437 9.225-7.986 21.789-4.146 33.611 3.841 11.824 12.48 21.08 23.111 24.761 1.72.595 3.177 1.565 4.312 2.801l-39.898 69.108c-2.179 3.773-1.978 8.331.524 11.896 2.502 3.563 6.723 5.301 11.013 4.531l38.499-6.903 13.271 36.795c1.479 4.1 5.094 6.885 9.432 7.271.34.029.678.045 1.013.045 3.947 0 7.542-2.061 9.55-5.538l34.461-59.688c5.01 2.162 10.602 3.345 16.411 3.345 5.81 0 11.402-1.183 16.412-3.345l34.46 59.686c2.008 3.479 5.604 5.539 9.551 5.539.335 0 .674-.015 1.014-.045 4.338-.386 7.952-3.172 9.431-7.271l13.271-36.793zm-182.059 14.473-11.959-33.157c-1.323-3.67-5.099-5.85-8.938-5.16l-34.694 6.221 26.948-46.675c2.821 5.822 7.218 11.094 12.848 15.185 10.056 7.307 22.486 9.718 33.25 6.446 4.268-1.297 8.588.106 11.278 3.664.4.529.819 1.042 1.25 1.546zm41.494-63.127c-5.107-6.754-12.812-10.491-20.896-10.491-2.584 0-5.207.382-7.796 1.169-5.993 1.821-13.167.295-19.192-4.082-6.024-4.377-9.692-10.729-9.812-16.992-.213-11.171-7.175-20.751-17.733-24.405-5.92-2.05-10.828-7.502-13.128-14.585-2.3-7.081-1.534-14.376 2.05-19.513 6.393-9.162 6.393-21.004 0-30.168-3.584-5.138-4.35-12.433-2.049-19.515s7.209-12.533 13.128-14.582c10.558-3.653 17.518-13.234 17.732-24.407.12-6.263 3.788-12.615 9.812-16.991 6.024-4.377 13.199-5.902 19.192-4.081 10.69 3.248 21.952-.41 28.692-9.323 3.778-4.996 10.479-7.979 17.926-7.979 7.446 0 14.147 2.983 17.925 7.979 6.738 8.913 18 12.573 28.692 9.323 5.993-1.82 13.168-.295 19.193 4.082 6.023 4.377 9.691 10.729 9.811 16.991.213 11.172 7.174 20.752 17.733 24.406 5.919 2.05 10.827 7.502 13.128 14.584s1.535 14.377-2.049 19.513c-6.394 9.163-6.394 21.005 0 30.169 3.584 5.138 4.35 12.433 2.049 19.515s-7.208 12.533-13.127 14.582c-10.559 3.655-17.52 13.235-17.733 24.406-.12 6.264-3.788 12.615-9.813 16.992-6.023 4.376-13.198 5.902-19.191 4.081-10.692-3.251-21.953.41-28.692 9.322-3.778 4.996-10.479 7.979-17.926 7.979s-14.148-2.983-17.926-7.979zm89.304 29.969-11.958 33.156-29.982-51.931c.431-.503.85-1.017 1.249-1.545 2.69-3.557 7.011-4.961 11.278-3.664 10.761 3.27 23.191.861 33.248-6.445 5.631-4.091 10.029-9.364 12.85-15.186l26.948 46.675-34.695-6.221c-3.838-.689-7.615 1.492-8.938 5.161zm9.763-133.953c0-44.741-36.4-81.142-81.141-81.142-44.742 0-81.142 36.4-81.142 81.142s36.4 81.143 81.142 81.143c44.741 0 81.141-36.401 81.141-81.143zm-81.141 65.143c-35.919 0-65.142-29.223-65.142-65.143 0-35.919 29.222-65.142 65.142-65.142 35.919 0 65.141 29.223 65.141 65.142 0 35.92-29.222 65.143-65.141 65.143zm44.939-101.788c-3.975-3.976-9.26-6.165-14.881-6.165s-10.906 2.189-14.881 6.164l-29.288 29.289-4.839-6.09c-3.494-4.395-8.49-7.166-14.069-7.804-5.578-.637-11.071.938-15.467 4.431-4.396 3.494-7.167 8.491-7.804 14.069-.637 5.579.936 11.071 4.429 15.466l18.86 23.732c3.585 4.994 9.135 8.16 15.271 8.701.622.055 1.242.082 1.86.082 5.554 0 10.886-2.192 14.857-6.162l45.952-45.952c3.975-3.976 6.164-9.261 6.164-14.882s-2.19-10.906-6.164-14.879zm-11.314 18.448-45.952 45.951c-1.446 1.446-3.128 1.534-3.999 1.457-.882-.078-2.538-.461-3.717-2.149-.095-.136-.193-.268-.296-.397l-18.997-23.905c-.834-1.05-1.21-2.361-1.058-3.694.152-1.332.814-2.525 1.864-3.359.897-.714 1.986-1.092 3.115-1.092.192 0 .386.011.58.032 1.332.152 2.525.814 3.359 1.863l10.418 13.108c1.418 1.785 3.531 2.88 5.808 3.01 2.272.129 4.499-.718 6.112-2.33l35.628-35.629c0-.001 0-.001 0-.001.953-.952 2.219-1.478 3.567-1.478s2.614.525 3.568 1.479c.953.953 1.477 2.22 1.477 3.566.001 1.347-.524 2.615-1.477 3.568zm186.671 294.808 27.293-51.523c7.423-14.01 9.266-28.281 5.478-42.419l-42.472-158.517c-4.941-18.439-23.966-29.424-42.407-24.482-8.905 2.385-16.363 8.119-20.998 16.147s-5.874 17.354-3.488 26.258l25.759 96.141c-4.456-.46-9.013-.122-13.489 1.058-9.703 2.559-17.809 8.708-22.824 17.314l-51.764 88.85c-.18.31-.339.63-.477.96-5.927 14.278-5.94 28.76-.04 43.042l12.015 29.084h-2.348c-7.645 0-13.865 6.219-13.865 13.863v24.439c0 7.646 6.22 13.865 13.865 13.865h132.24c7.645 0 13.865-6.22 13.865-13.865v-24.439c0-7.645-6.22-13.863-13.865-13.863h-4.191c-6.053-15.571-5.495-28.308 1.713-41.913zm.343 78.081h-127.969v-20.168h127.969zm-110.445-36.168-14.539-35.193c-4.215-10.203-4.271-20.127-.166-30.32l51.483-88.367c2.863-4.914 7.508-8.429 13.079-9.898 5.571-1.468 11.346-.701 16.259 2.162 10.221 5.955 13.691 19.115 7.736 29.336l-27.652 47.462c-2.224 3.817-.932 8.716 2.885 10.939 3.818 2.224 8.716.934 10.939-2.885l27.652-47.462c9.659-16.579 5.106-37.583-9.899-48.815l-28.815-107.548c-1.28-4.776-.609-9.79 1.889-14.116 2.498-4.327 6.504-7.414 11.281-8.693 9.923-2.653 20.155 3.25 22.812 13.168l42.472 158.517c2.747 10.249 1.385 20.32-4.161 30.788l-27.294 51.523c-8.571 16.18-10.074 31.769-4.541 49.403h-91.42zm-191.101-72.125c-.137-.331-.296-.651-.476-.961l-51.766-88.85c-5.015-8.606-13.121-14.756-22.823-17.314-4.477-1.18-9.033-1.517-13.49-1.057l25.76-96.142c2.386-8.904 1.147-18.229-3.488-26.258s-12.093-13.763-20.998-16.147c-18.442-4.94-37.466 6.043-42.407 24.482l-42.472 158.516c-3.788 14.137-1.945 28.409 5.477 42.419l27.294 51.523c7.208 13.605 7.765 26.342 1.713 41.913h-4.191c-7.645 0-13.865 6.219-13.865 13.863v24.439c0 7.646 6.22 13.865 13.865 13.865h132.24c7.645 0 13.865-6.22 13.865-13.865v-24.439c0-7.645-6.22-13.863-13.865-13.863h-2.348l12.014-29.083c5.9-14.282 5.887-28.763-.039-43.041zm-11.763 108.293h-127.969v-20.168h127.969zm-2.987-71.362-14.538 35.193h-91.422c5.533-17.635 4.031-33.223-4.541-49.403l-27.294-51.523c-5.546-10.468-6.907-20.539-4.16-30.788l42.472-158.517c2.658-9.918 12.893-15.822 22.812-13.168 4.776 1.279 8.783 4.366 11.281 8.693 2.498 4.326 3.169 9.34 1.889 14.116l-28.816 107.549c-15.005 11.234-19.558 32.236-9.899 48.815l27.651 47.462c2.224 3.817 7.123 5.108 10.94 2.885s5.109-7.122 2.885-10.939l-27.651-47.462c-5.955-10.221-2.484-23.381 7.737-29.336 4.913-2.863 10.687-3.631 16.258-2.162 5.571 1.47 10.216 4.984 13.079 9.898l51.484 88.367c4.105 10.194 4.049 20.117-.167 30.32z"/></svg>
