<svg id="Layer_1" enable-background="new 0 0 66 66" viewBox="0 0 66 66" xmlns="http://www.w3.org/2000/svg"><g><g><g><g><g><g><g><g><path d="m17.35 65c-.34 0-.65-.23-.73-.57l-.61-2.51c-.91-.22-1.79-.55-2.65-.99l-2.09 1.59c-.29.22-.69.2-.96-.04l-3.41-3.08c-.27-.24-.33-.64-.14-.95l1.37-2.25c-.53-.81-.96-1.67-1.27-2.54l-2.54-.34c-.36-.05-.63-.34-.65-.7l-.24-4.6c-.03-.35.22-.67.57-.76l2.49-.6c.22-.91.55-1.79.99-2.65l-1.59-2.09c-.22-.29-.2-.69.04-.96l1.93-2.14c.28-.31.75-.33 1.06-.06.31.28.33.75.06 1.06l-1.53 1.68 1.51 1.98c.18.24.2.56.06.82-.56 1-.95 2.05-1.16 3.12-.06.29-.28.51-.56.58l-2.35.57.17 3.36 2.39.32c.29.04.53.24.62.52.32 1.04.82 2.04 1.49 2.99.17.24.18.57.03.82l-1.3 2.13 2.49 2.25 1.98-1.51c.24-.18.56-.2.82-.06 1 .56 2.05.95 3.12 1.16.29.06.51.27.58.56l.58 2.36 3.36-.17.32-2.39c.04-.29.24-.53.52-.61 1.08-.34 2.08-.84 2.99-1.48.24-.17.57-.18.82-.03l2.13 1.3 2.25-2.5-1.51-1.98c-.18-.24-.2-.56-.06-.82.54-.97.93-2.02 1.16-3.12.06-.28.28-.51.56-.58l2.35-.58-.21-3.97c-.02-.41.29-.77.71-.79.41-.01.77.29.79.71l.25 4.59c.02.36-.22.68-.57.77l-2.51.61c-.23.92-.56 1.81-.98 2.65l1.59 2.09c.22.29.2.69-.04.96l-3.09 3.42c-.24.27-.64.33-.95.14l-2.25-1.37c-.79.51-1.64.93-2.53 1.25l-.34 2.55c-.05.36-.34.63-.7.65l-4.59.23c-.02 0-.03 0-.04 0z"/></g></g></g></g></g></g><g><path d="m18.88 57.6c-4.26 0-7.83-3.35-8.05-7.65-.12-2.27.73-4.49 2.34-6.11.29-.29.77-.29 1.06 0s.29.77 0 1.06c-1.3 1.31-2 3.12-1.9 4.97.19 3.62 3.29 6.39 6.9 6.22 1.75-.09 3.36-.86 4.54-2.16 1.17-1.3 1.77-2.98 1.68-4.74-.02-.45-.09-.89-.2-1.32-.1-.4.14-.81.54-.91s.81.14.91.54c.14.52.22 1.07.25 1.61.23 4.44-3.2 8.24-7.64 8.47-.14.02-.29.02-.43.02z"/></g></g><g><g><g><g><g><g><g><path d="m46.32 31.82c-.4 0-.74-.32-.75-.73s.31-.76.73-.77l2.76-.09.37-2.38c.04-.29.25-.52.53-.6 1.08-.32 2.1-.8 3.02-1.42.25-.17.57-.17.82-.01l2.1 1.34 2.3-2.46-1.47-2.01c-.18-.24-.19-.56-.04-.82.56-.95.97-2 1.23-3.1.06-.28.29-.5.57-.56l2.37-.53-.11-3.35-2.39-.37c-.29-.04-.53-.25-.61-.53-.31-1.08-.79-2.1-1.42-3.01-.17-.25-.18-.58-.02-.83l1.34-2.1-2.45-2.29-2.01 1.47c-.24.18-.57.19-.83.04-.96-.58-2-.99-3.1-1.23-.29-.06-.51-.29-.57-.57l-.52-2.36-3.35.1-.38 2.4c-.04.29-.25.52-.53.6-1.05.3-2.06.78-3.01 1.42-.25.17-.57.17-.82.01l-2.1-1.34-1.85 1.97c-.28.3-.76.32-1.06.03-.3-.28-.32-.76-.03-1.06l2.27-2.42c.25-.26.65-.31.95-.12l2.22 1.41c.82-.51 1.67-.91 2.56-1.21l.4-2.55c.06-.36.36-.62.72-.63l4.58-.16c.38-.01.68.24.75.59l.55 2.51c.92.24 1.81.59 2.64 1.05l2.12-1.55c.29-.21.69-.19.96.06l3.35 3.15c.26.25.31.65.12.95l-1.41 2.22c.51.8.91 1.66 1.21 2.57l2.54.39c.36.06.62.36.64.72l.16 4.59c.01.36-.23.68-.59.76l-2.52.56c-.25.92-.6 1.8-1.04 2.63l1.55 2.13c.21.29.19.69-.06.96l-3.15 3.36c-.25.26-.65.31-.95.12l-2.22-1.41c-.8.49-1.65.9-2.56 1.2l-.39 2.54c-.06.36-.36.62-.72.64l-3.38.11c0-.03-.01-.03-.02-.03z"/></g></g></g></g></g></g><g><path d="m46.94 24.49c-.09 0-.19 0-.28 0-.41-.01-.74-.36-.72-.77s.36-.75.77-.72c.14 0 .29.01.44 0 3.62-.12 6.47-3.15 6.35-6.77-.06-1.75-.79-3.38-2.07-4.58s-2.95-1.82-4.7-1.77c-1.87.06-3.62.91-4.82 2.35-.27.32-.74.36-1.06.09s-.36-.74-.09-1.06c1.47-1.76 3.63-2.81 5.92-2.88 4.44-.17 8.18 3.36 8.32 7.8.07 2.15-.71 4.2-2.18 5.78-1.47 1.57-3.47 2.47-5.63 2.54-.08-.01-.17-.01-.25-.01z"/></g></g><g><path d="m40.66 11.44c-8.27-8.26-21.67-8.26-29.94 0-8.26 8.26-8.26 21.67 0 29.93 8.27 8.27 21.67 8.27 29.94 0 8.26-8.27 8.26-21.67 0-29.93zm-3.33 26.61c-6.42 6.42-16.86 6.42-23.28 0s-6.42-16.86 0-23.28 16.86-6.42 23.28 0 6.42 16.86 0 23.28z" style="fill:none;stroke:rgb(0,0,0);stroke-width:1.5;stroke-linecap:round;stroke-linejoin:round;stroke-miterlimit:10"/></g><g><path d="m42.83 47.33c-.19 0-.38-.07-.53-.22l-3.69-3.69c-.29-.29-.29-.77 0-1.06s.77-.29 1.06 0l3.69 3.69c.29.29.29.77 0 1.06-.15.15-.34.22-.53.22z"/></g><g><path d="m45.86 44.29c-.19 0-.38-.07-.53-.22l-3.69-3.69c-.29-.29-.29-.77 0-1.06s.77-.29 1.06 0l3.69 3.69c.29.29.29.77 0 1.06-.14.15-.33.22-.53.22z"/></g><g><path d="m53.11 61.54c-.2 0-.39-.08-.53-.22l-8.63-8.63c-.18-.18-.26-.45-.2-.71 1.54-6.44 7.32-7.48 7.57-7.52.24-.04.48.04.65.21l8.63 8.63c.19.19.26.45.2.71-1.56 6.44-7.32 7.48-7.56 7.52-.04 0-.09.01-.13.01zm-7.8-9.61 8.04 8.04c1.15-.31 4.65-1.58 5.89-5.91l-8.03-8.03c-1.16.29-4.67 1.57-5.9 5.9z"/></g><g><path d="m44.48 52.91c-.19 0-.38-.07-.53-.22l-.32-.32c-1.07-1.07-1.66-2.49-1.66-4.01 0-1.51.59-2.94 1.66-4.01s2.49-1.66 4.01-1.67c1.52 0 2.94.59 4.01 1.66l.32.32c.29.29.29.77 0 1.06s-.77.29-1.06 0l-.32-.32c-.79-.79-1.83-1.22-2.95-1.22-1.12.01-2.17.44-2.95 1.23-.79.79-1.22 1.83-1.22 2.95 0 1.11.43 2.16 1.22 2.95l.32.32c.29.29.29.77 0 1.06-.15.14-.34.22-.53.22z"/></g><g><path d="m56.91 63.29c-1.45 0-2.9-.55-4.01-1.66-.29-.29-.29-.77 0-1.06s.77-.29 1.06 0c1.62 1.62 4.27 1.62 5.89 0 1.63-1.63 1.63-4.27.01-5.9-.29-.29-.29-.77 0-1.06s.77-.29 1.06 0c2.21 2.21 2.21 5.81-.01 8.02-1.1 1.11-2.55 1.66-4 1.66z"/></g><g><path d="m20.66 37.07h-4.03c-.41 0-.75-.34-.75-.75v-7.4c0-.41.34-.75.75-.75h4.03c.41 0 .75.34.75.75v7.4c0 .42-.34.75-.75.75zm-3.28-1.5h2.53v-5.9h-2.53z"/></g><g><path d="m27.7 37.07h-4.03c-.41 0-.75-.34-.75-.75v-11.44c0-.41.34-.75.75-.75h4.03c.41 0 .75.34.75.75v11.44c0 .42-.33.75-.75.75zm-3.27-1.5h2.53v-9.94h-2.53z"/></g><g><path d="m34.75 37.07h-4.03c-.41 0-.75-.34-.75-.75v-7.4c0-.41.34-.75.75-.75h4.03c.41 0 .75.34.75.75v7.4c0 .42-.34.75-.75.75zm-3.28-1.5h2.53v-5.9h-2.53z"/></g><g><path d="m18.64 26.06c-1.75 0-3.18-1.43-3.18-3.18s1.43-3.18 3.18-3.18 3.18 1.43 3.18 3.18-1.42 3.18-3.18 3.18zm0-4.87c-.93 0-1.68.75-1.68 1.68s.75 1.68 1.68 1.68 1.68-.75 1.68-1.68-.75-1.68-1.68-1.68z"/></g><g><path d="m25.69 20.53c-1.75 0-3.18-1.43-3.18-3.18s1.43-3.18 3.18-3.18 3.18 1.43 3.18 3.18-1.43 3.18-3.18 3.18zm0-4.87c-.93 0-1.68.75-1.68 1.68s.75 1.68 1.68 1.68 1.68-.75 1.68-1.68-.75-1.68-1.68-1.68z"/></g><g><path d="m32.74 26.06c-1.75 0-3.18-1.43-3.18-3.18s1.43-3.18 3.18-3.18 3.18 1.43 3.18 3.18-1.43 3.18-3.18 3.18zm0-4.87c-.93 0-1.68.75-1.68 1.68s.75 1.68 1.68 1.68 1.68-.75 1.68-1.68-.76-1.68-1.68-1.68z"/></g><g><path d="m20.55 22.13c-.22 0-.44-.1-.59-.29-.26-.33-.2-.8.13-1.05l3.23-2.53c.33-.25.8-.2 1.05.13.26.33.2.8-.13 1.05l-3.23 2.53c-.13.1-.3.16-.46.16z"/></g><g><path d="m30.83 22.13c-.16 0-.33-.05-.46-.16l-3.23-2.54c-.33-.26-.38-.73-.13-1.05.26-.32.73-.38 1.05-.13l3.23 2.54c.33.26.38.73.13 1.05-.15.19-.37.29-.59.29z"/></g><g><g><path d="m52.86 54.09c-.19 0-.38-.07-.53-.22l-4.02-4.02c-.29-.29-.29-.77 0-1.06s.77-.29 1.06 0l4.02 4.02c.29.29.29.77 0 1.06-.15.15-.34.22-.53.22z"/></g><g><path d="m55.32 56.56c-.19 0-.38-.07-.53-.22l-.75-.75c-.29-.29-.29-.77 0-1.06s.77-.29 1.06 0l.75.75c.29.29.29.77 0 1.06-.14.14-.34.22-.53.22z"/></g></g></g></svg>
