<svg id="Layer_1" enable-background="new 0 0 512 512" viewBox="0 0 512 512" xmlns="http://www.w3.org/2000/svg"><path d="m509.503 457.479-39.784-68.907c1.128-1.225 2.575-2.186 4.281-2.777 10.606-3.672 19.228-12.906 23.061-24.703 3.834-11.797 2.288-24.336-4.135-33.543-2.539-3.64-2.54-8.162-.001-11.801 6.424-9.206 7.97-21.746 4.137-33.543s-12.454-21.032-23.061-24.704c-4.194-1.452-6.854-5.111-6.938-9.548-.214-11.223-6.332-22.275-16.367-29.566-10.034-7.291-22.438-9.697-33.181-6.434-.113.034-.226.059-.339.09v-36.343c0-4.418-3.582-8-8-8h-27.067c-4.354-18.303-11.538-35.634-21.42-51.679l19.149-19.15c3.124-3.124 3.124-8.189 0-11.313l-47.221-47.221c-3.123-3.122-8.188-3.123-11.313 0l-19.15 19.149c-16.051-9.883-33.384-17.067-51.679-21.421v-27.065c0-4.418-3.582-8-8-8h-66.78c-4.418 0-8 3.582-8 8v27.067c-18.302 4.354-35.631 11.538-51.678 21.42l-19.149-19.149c-3.123-3.122-8.188-3.123-11.313 0l-47.222 47.22c-1.501 1.501-2.344 3.535-2.344 5.657 0 2.121.843 4.156 2.343 5.656l19.15 19.151c-9.885 16.054-17.067 33.384-21.42 51.678h-27.068c-4.418 0-8 3.582-8 8v66.781c0 4.418 3.582 8 8 8h27.069c4.354 18.302 11.538 35.631 21.42 51.676l-19.151 19.15c-3.124 3.124-3.124 8.189 0 11.313l47.22 47.222c1.501 1.501 3.535 2.344 5.657 2.344 2.121 0 4.156-.843 5.656-2.343l19.152-19.151c16.053 9.884 33.384 17.068 51.677 21.421v27.068c0 4.418 3.582 8 8 8h66.78c4.418 0 8-3.582 8-8v-27.071c4.829-1.152 9.618-2.514 14.331-4.066 3.643 3.479 7.898 6.146 12.533 7.751 1.707.591 3.154 1.552 4.282 2.778l-39.784 68.907c-2.178 3.771-1.977 8.326.524 11.887 2.501 3.562 6.721 5.301 11.005 4.528l38.378-6.882 13.229 36.678c1.479 4.096 5.089 6.88 9.423 7.266.34.03.679.045 1.015.045 3.943 0 7.536-2.058 9.543-5.533l34.358-59.511c4.995 2.153 10.568 3.331 16.358 3.331s11.364-1.178 16.359-3.331l34.36 59.513c2.007 3.474 5.599 5.532 9.542 5.531.336 0 .675-.015 1.015-.045 4.334-.386 7.944-3.17 9.423-7.267l13.229-36.677 38.379 6.882c4.29.772 8.504-.966 11.004-4.528 2.499-3.561 2.701-8.117.523-11.888zm-251.09-129.932c-6.423 9.206-7.97 21.744-4.137 33.542.347 1.067.746 2.104 1.168 3.126-4.789 1.428-9.65 2.639-14.534 3.613-3.741.746-6.436 4.03-6.436 7.846v25.508h-50.78v-25.508c0-3.815-2.694-7.1-6.437-7.846-20.757-4.138-40.238-12.212-57.903-24-3.174-2.118-7.4-1.699-10.097.997l-18.049 18.048-35.906-35.908 18.048-18.047c2.697-2.698 3.114-6.926.997-10.099-11.784-17.653-19.858-37.135-24-57.902-.746-3.741-4.03-6.436-7.846-6.436h-25.507v-50.781h25.508c3.815 0 7.1-2.694 7.846-6.437 4.138-20.757 12.212-40.238 23.999-57.904 2.117-3.173 1.7-7.399-.997-10.097l-18.047-18.047 35.908-35.906 18.045 18.046c2.698 2.696 6.924 3.114 10.099.997 17.654-11.784 37.137-19.858 57.904-24 3.741-.746 6.436-4.03 6.436-7.846v-25.506h50.78v25.505c0 3.815 2.694 7.1 6.436 7.846 20.761 4.139 40.243 12.214 57.906 24 3.174 2.119 7.4 1.7 10.097-.997l18.047-18.046 35.907 35.907-18.046 18.046c-2.697 2.698-3.114 6.926-.997 10.099 11.783 17.653 19.858 37.135 24 57.905.746 3.741 4.03 6.436 7.846 6.436h25.506v19.254c-6.745-5.681-15.828-8.946-25.505-8.947-.001 0-.001 0-.002 0-12.403 0-23.851 5.346-30.621 14.298-2.679 3.541-6.982 4.938-11.224 3.648-1.534-.466-3.104-.803-4.694-1.04.009-.607.039-1.218.039-1.823 0-66.215-53.869-120.084-120.084-120.084s-120.086 53.869-120.086 120.084 53.87 120.084 120.085 120.084c17.479 0 34.797-3.836 50.547-11.137 1.212 3.134.809 6.602-1.219 9.509zm-83.942-135.032c0-19.088 15.528-34.616 34.616-34.616 19.087 0 34.615 15.528 34.615 34.616s-15.528 34.616-34.615 34.616c-19.088 0-34.616-15.528-34.616-34.616zm79.805 89.69c-2.308 7.104-2.652 14.473-1.168 21.226-13.702 6.39-28.79 9.744-44.023 9.744-25.193 0-48.322-8.999-66.347-23.948 10.298-27.376 36.88-46.096 66.349-46.096 20.509 0 40.02 9.05 53.453 24.499-3.61 4.094-6.468 9.047-8.264 14.575zm139.253 143.133c-3.764 4.978-10.44 7.949-17.86 7.949s-14.097-2.972-17.86-7.949c-5.098-6.741-12.787-10.471-20.858-10.471-2.578 0-5.196.381-7.78 1.166-5.972 1.814-13.119.293-19.122-4.067-6.002-4.361-9.656-10.69-9.776-16.929-.213-11.15-7.16-20.713-17.699-24.361-5.896-2.042-10.786-7.474-13.079-14.531s-1.529-14.324 2.041-19.441c6.381-9.145 6.382-20.964 0-30.112-3.57-5.117-4.334-12.386-2.041-19.441 2.293-7.057 7.183-12.488 13.079-14.53 10.539-3.647 17.486-13.21 17.699-24.361.12-6.239 3.775-12.567 9.777-16.929 6.003-4.361 13.153-5.881 19.123-4.066 10.668 3.24 21.91-.411 28.638-9.307 3.764-4.977 10.44-7.948 17.86-7.948 7.42.001 14.097 2.973 17.86 7.95 6.727 8.896 17.969 12.551 28.638 9.304 5.97-1.813 13.121-.294 19.122 4.068 6.003 4.361 9.657 10.689 9.776 16.928.213 11.15 7.16 20.713 17.7 24.362 5.896 2.041 10.786 7.473 13.078 14.529 2.293 7.057 1.53 14.325-2.041 19.443-6.382 9.146-6.381 20.965 0 30.111 3.571 5.118 4.334 12.387 2.04 19.443-2.293 7.056-7.182 12.487-13.078 14.528-10.539 3.648-17.486 13.212-17.699 24.361-.12 6.239-3.774 12.568-9.777 16.93s-13.15 5.882-19.12 4.066c-10.674-3.242-21.914.408-28.641 9.305zm33.468-110.635-21.839 18.473 6.811 27.781c.774 3.155-.438 6.466-3.067 8.376-2.628 1.909-6.151 2.041-8.915.329l-24.317-15.062-24.316 15.062c-1.294.802-2.755 1.199-4.212 1.199-1.655 0-3.306-.513-4.703-1.528-2.629-1.909-3.842-5.22-3.067-8.376l6.81-27.781-21.839-18.473c-2.481-2.099-3.446-5.49-2.442-8.58 1.004-3.091 3.778-5.267 7.019-5.507l28.526-2.108 10.82-26.479c1.229-3.008 4.155-4.974 7.405-4.974s6.177 1.966 7.405 4.974l10.82 26.479 28.526 2.108c3.24.24 6.015 2.416 7.019 5.507 1.002 3.09.038 6.481-2.444 8.58zm33.25 6.944c0-46.636-37.941-84.577-84.577-84.577s-84.577 37.941-84.577 84.577c0 46.637 37.941 84.578 84.577 84.578s84.577-37.941 84.577-84.578zm-84.577 68.579c-37.813 0-68.577-30.764-68.577-68.578 0-37.813 30.764-68.577 68.577-68.577s68.577 30.764 68.577 68.577c0 37.814-30.764 68.578-68.577 68.578z"/></svg>
