<svg xmlns="http://www.w3.org/2000/svg" id="Layer_1" data-name="Layer 1" viewBox="0 0 512 512" width="300" height="300" version="1.1" xmlns:xlink="http://www.w3.org/1999/xlink" xmlns:svgjs="http://svgjs.dev/svgjs"><g width="100%" height="100%" transform="matrix(1,0,0,1,0,0)"><path d="M188.113,286.374l17.794-14.705-17.8-14.728a7,7,0,1,1,8.928-10.789l24.321,20.126a7,7,0,0,1,0,10.793l-24.321,20.1a7,7,0,1,1-8.92-10.795Zm130.254-5.022a68.563,68.563,0,0,1-13.45-13.415,7,7,0,0,1-.428-7.823l4.366-7.3A57.655,57.655,0,0,1,305,243.533l-8.25-2.095a7,7,0,0,1-5.206-5.8,68.3,68.3,0,0,1,0-19.015,7,7,0,0,1,5.206-5.8l8.25-2.095a57.655,57.655,0,0,1,3.853-9.281l-4.366-7.3a7,7,0,0,1,.427-7.823,68.546,68.546,0,0,1,13.451-13.416,7,7,0,0,1,7.8-.412l7.281,4.348a57.677,57.677,0,0,1,9.3-3.862l2.1-8.25a7,7,0,0,1,5.793-5.206,68.537,68.537,0,0,1,19.02,0,7,7,0,0,1,5.8,5.207l2.086,8.25a57.606,57.606,0,0,1,9.308,3.861l7.28-4.348a7,7,0,0,1,7.818.424,68.234,68.234,0,0,1,13.422,13.426,7,7,0,0,1,.412,7.8l-4.349,7.28a57.615,57.615,0,0,1,3.865,9.305l8.241,2.088a7,7,0,0,1,5.222,5.867,71.129,71.129,0,0,1,0,18.877,7,7,0,0,1-5.222,5.867l-8.241,2.088a57.652,57.652,0,0,1-3.865,9.305l4.349,7.282a7,7,0,0,1-.412,7.8,68.284,68.284,0,0,1-13.422,13.425,7,7,0,0,1-7.817.424l-7.281-4.348a57.554,57.554,0,0,1-9.308,3.861l-2.086,8.25a7,7,0,0,1-5.8,5.206,68.13,68.13,0,0,1-19.02,0,7,7,0,0,1-5.793-5.2l-2.095-8.247a57.153,57.153,0,0,1-9.307-3.861l-7.275,4.344A7,7,0,0,1,318.367,281.352Zm-.882-45.208a43.7,43.7,0,0,0,5.427,13.074,7,7,0,0,1,.055,7.286l-3.927,6.561a54.593,54.593,0,0,0,4.163,4.156l6.6-3.922a7,7,0,0,1,7.276.08,43.319,43.319,0,0,0,13.06,5.418,7,7,0,0,1,5.191,5.1l1.877,7.418a54.994,54.994,0,0,0,5.884,0l1.841-7.387a7,7,0,0,1,5.207-5.136,43.6,43.6,0,0,0,13.1-5.426,7,7,0,0,1,7.26-.071l6.592,3.918a54.387,54.387,0,0,0,4.148-4.141l-3.92-6.6a7,7,0,0,1,.07-7.258,43.729,43.729,0,0,0,5.428-13.075,7,7,0,0,1,5.094-5.189l7.4-1.878c.05-.982.075-1.966.075-2.958q0-1.455-.076-2.931l-7.4-1.877a7,7,0,0,1-5.094-5.188,43.735,43.735,0,0,0-5.428-13.076,7,7,0,0,1-.07-7.258l3.92-6.6a54.373,54.373,0,0,0-4.147-4.141l-6.594,3.918a7,7,0,0,1-7.258-.07,43.64,43.64,0,0,0-13.1-5.427,7,7,0,0,1-5.206-5.136l-1.841-7.387a54.994,54.994,0,0,0-5.884,0l-1.877,7.418a7,7,0,0,1-5.19,5.1A43.764,43.764,0,0,0,337.06,188.9a7,7,0,0,1-7.258.07l-6.6-3.922a54.566,54.566,0,0,0-4.162,4.155l3.927,6.561a7,7,0,0,1-.055,7.285,43.705,43.705,0,0,0-5.427,13.075,7,7,0,0,1-5.1,5.19l-7.418,1.877q-.079,1.457-.078,2.929c0,.991.026,1.979.078,2.957l7.418,1.877A7,7,0,0,1,317.485,236.144ZM153.06,305.083a7,7,0,0,0,8.575-4.952l14.486-54.087a7,7,0,1,0-13.527-3.623l-14.486,54.087A7,7,0,0,0,153.06,305.083Zm172.205-78.964a34.868,34.868,0,1,1,34.868,34.9A34.908,34.908,0,0,1,325.265,226.119Zm14,0a20.863,20.863,0,1,0,20.863-20.863A20.9,20.9,0,0,0,339.27,226.119Zm-81.64-62.25V340.953a7,7,0,0,1-7,7H73.572a7,7,0,0,1-7-7V163.869a7,7,0,0,1,7-7H250.628A7,7,0,0,1,257.63,163.869Zm-14,44.76H80.574V333.951H243.626Zm0-37.758H80.574v23.754H243.626Zm-140.781,106.2,24.322,20.1a7,7,0,0,0,8.92-10.795l-17.795-14.705,17.8-14.728a7,7,0,0,0-8.928-10.789l-24.322,20.126a7,7,0,0,0,0,10.793Zm377.99-126.44V400.879a26.932,26.932,0,0,1-26.9,26.9H308.472l8,35.66H334.45a24.308,24.308,0,0,1,24.3,24.266V505a7,7,0,0,1-7,7H160.258a7,7,0,0,1-7-7V487.707a24.308,24.308,0,0,1,24.294-24.266h18l7.979-35.66H58.066a26.931,26.931,0,0,1-26.9-26.9V150.631a26.932,26.932,0,0,1,26.9-26.9h67.417c.2-3.664.525-7.314,1.023-10.91a7,7,0,0,1,5.217-5.827l20.2-5.106a107.144,107.144,0,0,1,10.106-24.375l-10.677-17.89a7,7,0,0,1,.436-7.818A130.683,130.683,0,0,1,177.1,26.5a7,7,0,0,1,7.806-.427L202.8,36.746a107.3,107.3,0,0,1,24.4-10.107l5.073-20.186a7,7,0,0,1,5.837-5.232,131.657,131.657,0,0,1,35.789,0,7,7,0,0,1,5.827,5.217l5.107,20.2a107.192,107.192,0,0,1,24.375,10.106L327.1,26.069a7,7,0,0,1,7.817.436,130.655,130.655,0,0,1,25.308,25.31,7,7,0,0,1,.428,7.806L349.97,77.511a107.128,107.128,0,0,1,10.107,24.375l20.2,5.106a7,7,0,0,1,5.217,5.827c.5,3.6.827,7.246,1.023,10.91h67.416A26.933,26.933,0,0,1,480.835,150.631ZM139.5,123.729h41.219a75.617,75.617,0,0,1,150.592,0H372.5c-.087-1.452-.192-2.9-.332-4.345l-19.559-4.938a7,7,0,0,1-5.109-5.2,93.265,93.265,0,0,0-11.631-28.058,7,7,0,0,1-.059-7.286l10.343-17.314a116.685,116.685,0,0,0-16.03-16.021L312.817,50.9a7,7,0,0,1-7.286-.058,93.281,93.281,0,0,0-28.06-11.632,7,7,0,0,1-5.2-5.109l-4.939-19.558a117.454,117.454,0,0,0-22.655,0L239.757,34.1a7,7,0,0,1-5.2,5.109,93.383,93.383,0,0,0-28.088,11.632,7,7,0,0,1-7.286.058L181.869,40.563a116.789,116.789,0,0,0-16.021,16.029L176.188,73.9a7,7,0,0,1-.06,7.286,93.284,93.284,0,0,0-11.63,28.058,7,7,0,0,1-5.109,5.2l-19.559,4.938C139.69,120.827,139.585,122.277,139.5,123.729ZM256.014,69.076a61.707,61.707,0,0,0-61.22,54.653h122.44A61.707,61.707,0,0,0,256.014,69.076ZM201.181,477.445H177.549a10.286,10.286,0,0,0-10.289,10.262V498H344.74V487.707a10.287,10.287,0,0,0-10.29-10.262H201.181Zm100.938-14-8-35.66H217.883l-7.978,35.66Zm164.712-82.319H45.169v19.757a12.911,12.911,0,0,0,12.9,12.9H453.933a12.911,12.911,0,0,0,12.9-12.9Zm0-230.491a12.912,12.912,0,0,0-12.9-12.9H58.066a12.912,12.912,0,0,0-12.9,12.9V367.118H466.831ZM438.457,307.163H320.418a7,7,0,0,0,0,14H438.457a7,7,0,0,0,0-14Zm0,26.788H320.418a7,7,0,0,0,0,14H438.457a7,7,0,0,0,0-14Zm-139.78-26.788H281.838a7,7,0,0,0,0,14h16.839a7,7,0,0,0,0-14Zm0,26.788H281.838a7,7,0,0,0,0,14h16.839a7,7,0,0,0,0-14Zm-55.476,70.5h25.6a7,7,0,0,0,0-14H243.2a7,7,0,0,0,0,14Z" fill="url(#SvgjsLinearGradient1386)" fill-opacity="1" data-original-color="#000000ff" stroke="none" stroke-opacity="1"/></g><defs><linearGradient id="SvgjsLinearGradient1386"><stop stop-opacity="1" stop-color="#355c7d" offset="0"/><stop stop-opacity="1" stop-color="#c06c84" offset="1"/></linearGradient></defs></svg>
