<?xml version="1.0"?>
<svg xmlns="http://www.w3.org/2000/svg" data-name="Layer 1" id="Layer_1" viewBox="0 0 128 128"><title/><path d="M126,0H96.22a2,2,0,0,0-1.4.58L87.27,8H70.71A7,7,0,0,0,57.29,8H40.73L33.19.58A2,2,0,0,0,31.78,0H2A2,2,0,0,0,2,4H31l7.54,7.42a2,2,0,0,0,1.4.58H57.29a7,7,0,0,0,13.41,0H88.09a2,2,0,0,0,1.4-.58L97,4h29a2,2,0,0,0,0-4ZM64,13a3,3,0,1,1,3-3A3,3,0,0,1,64,13Z"/><path d="M126,13H112.71a7,7,0,1,0,0,4H126a2,2,0,0,0,0-4Zm-20,5a3,3,0,1,1,3-3A3,3,0,0,1,106,18Z"/><path d="M126,124H97l-7.54-7.42a2,2,0,0,0-1.4-.58H70.71a7,7,0,0,0-13.41,0H39.91a2,2,0,0,0-1.4.58L31,124H2a2,2,0,0,0,0,4H31.78a2,2,0,0,0,1.4-.58L40.73,120H57.29a7,7,0,0,0,13.41,0H87.27l7.54,7.42a2,2,0,0,0,1.4.58H126a2,2,0,0,0,0-4Zm-62-3a3,3,0,1,1,3-3A3,3,0,0,1,64,121Z"/><path d="M126,111H112.71a7,7,0,1,0,0,4H126a2,2,0,0,0,0-4Zm-20,5a3,3,0,1,1,3-3A3,3,0,0,1,106,116Z"/><path d="M64,42a21.86,21.86,0,0,1,9.37,2.1,5.94,5.94,0,0,1,3.15,1.82A22.15,22.15,0,0,1,83.61,54H88A26,26,0,1,0,88,74H83.61a22.15,22.15,0,0,1-7.1,8.13,5.94,5.94,0,0,1-3.14,1.81A22,22,0,1,1,64,42Z"/><path d="M67.07,19H60.93a4.05,4.05,0,0,0-4,4v3.67A38,38,0,0,0,42.67,32.6L40.08,30a4,4,0,0,0-5.72,0L30,34.35a4,4,0,0,0,0,5.72l2.59,2.59a38,38,0,0,0-5.89,14.21H23a4.05,4.05,0,0,0-4,4v6.14a4.05,4.05,0,0,0,4,4h3.67A38,38,0,0,0,32.6,85.33L30,87.92a4,4,0,0,0,0,5.72L34.35,98a4,4,0,0,0,5.72,0l2.59-2.59a38,38,0,0,0,14.21,5.89V105a4.05,4.05,0,0,0,4,4h6.14a4.05,4.05,0,0,0,4-4v-3.67A38,38,0,0,0,85.33,95.4L87.92,98a4,4,0,0,0,5.72,0L98,93.65a4,4,0,0,0,0-5.72L95.4,85.33A38,38,0,0,0,100.62,74H96.45a33.9,33.9,0,0,1-5.26,10.39A2,2,0,0,0,91.38,87l3.79,3.85-4.41,4.34L87,91.38a2,2,0,0,0-2.61-.19,33.93,33.93,0,0,1-15.51,6.42,2,2,0,0,0-1.72,2l0,5.41-6.19,0V99.59a2,2,0,0,0-1.72-2,33.93,33.93,0,0,1-15.51-6.42,2,2,0,0,0-2.61.19l-3.85,3.79-4.34-4.41L36.62,87a2,2,0,0,0,.19-2.61,33.93,33.93,0,0,1-6.42-15.51,2,2,0,0,0-2-1.72l-5.41,0,0-6.19h5.36a2,2,0,0,0,2-1.72,33.93,33.93,0,0,1,6.42-15.51A2,2,0,0,0,36.62,41l-3.79-3.85,4.41-4.34L41,36.62a2,2,0,0,0,2.61.19,33.91,33.91,0,0,1,15.51-6.42,2,2,0,0,0,1.72-2l0-5.41,6.19,0v5.36a2,2,0,0,0,1.72,2,33.91,33.91,0,0,1,15.51,6.42A2,2,0,0,0,87,36.62l3.85-3.79,4.34,4.41L91.38,41a2,2,0,0,0-.19,2.61A33.9,33.9,0,0,1,96.45,54h4.17A38,38,0,0,0,95.4,42.67L98,40.08a4,4,0,0,0,0-5.72L93.65,30a4,4,0,0,0-5.72,0L85.33,32.6a38,38,0,0,0-14.21-5.88V23A4.05,4.05,0,0,0,67.07,19Z"/><path d="M109,68a2,2,0,0,0-2-2H59a2,2,0,0,0-1.22,3.58L70.86,79.63a2,2,0,0,0,2.44-3.17L64.87,70H107A2,2,0,0,0,109,68Z"/><path d="M121,53a7,7,0,0,0-6.71,5H64.87l8.43-6.5a2,2,0,0,0-2.44-3.17L57.78,58.46A2,2,0,0,0,59,62h55.29A7,7,0,1,0,121,53Zm0,10a3,3,0,1,1,3-3A3,3,0,0,1,121,63Z"/><path d="M4,115H15.29a7,7,0,1,0,0-4H4V17H15.29a7,7,0,1,0,0-4H4a4,4,0,0,0-4,4v94A4,4,0,0,0,4,115Zm18-5a3,3,0,1,1-3,3A3,3,0,0,1,22,110Zm0-98a3,3,0,1,1-3,3A3,3,0,0,1,22,12Z"/></svg>
