<svg id="Layer_1" enable-background="new 0 0 512 512" viewBox="0 0 512 512" xmlns="http://www.w3.org/2000/svg" width="300" height="300" version="1.1" xmlns:xlink="http://www.w3.org/1999/xlink" xmlns:svgjs="http://svgjs.dev/svgjs"><g width="100%" height="100%" transform="matrix(1,0,0,1,0,0)"><path d="m16.7 47.3-2.5-1.5 77.9-45 78 45-78 45.1zm68.9 54.8-77.9-45v90l77.9 45zm13.1 90 78-45v-90c-17.4 10-60.1 34.7-78 45zm314.6-90-77.9-45v90l77.9 45zm6.6-11.3 77.9-45.1-77.9-45-77.9 45 2.5 1.5zm6.5 11.3v90l77.9-45v-90c-18.4 10.7-59.2 34.2-77.9 45zm-418.7 364.1 77.9 45v-90l-77.9-45zm84.4-146.3-77.9 45 2.5 1.4 75.4 43.6 78-45zm6.6 191.3 78-45v-90c-17.4 10-60.1 34.7-78 45.1zm327.7 0 77.9-45v-90c-18.4 10.7-59.1 34.2-77.9 45.1zm-6.5-191.3-77.9 45 2.5 1.4 75.4 43.6 77.9-45zm-84.5 146.3 77.9 45v-90l-77.9-45.1zm-125.8-263.7c-2.5-2.5-6.7-2.5-9.2 0l-51.1 51.1c-2.5 2.5-2.5 6.7 0 9.2l50.6 50.6c1.3 1.3 2.9 1.9 4.6 1.9 5.6.2 8.8-7.2 4.6-11.1 0 0-45.9-45.9-45.9-45.9l46.5-46.5c2.4-2.7 2.4-6.8-.1-9.3zm153.2 51-51.1-51.1c-6-6-15.2 3.1-9.2 9.2 0 0 46.5 46.5 46.5 46.5l-46 46c-2.5 2.5-2.5 6.7 0 9.2s6.7 2.5 9.2 0l50.6-50.6c2.5-2.5 2.5-6.6 0-9.2zm-87.4-49.3-50.5 101.6c-3.7 7.6 7.8 13.5 11.7 5.8 0 0 50.5-101.6 50.5-101.6 3.8-7.6-7.8-13.5-11.7-5.8z" fill="url(#SvgjsLinearGradient1367)" fill-opacity="1" data-original-color="#000000ff" stroke="none" stroke-opacity="1"/></g><defs><linearGradient id="SvgjsLinearGradient1367"><stop stop-opacity="1" stop-color="#355c7d" offset="0"/><stop stop-opacity="1" stop-color="#c06c84" offset="1"/></linearGradient></defs></svg>
