<svg id="Layer_1" viewBox="0 0 64 64" xmlns="http://www.w3.org/2000/svg" data-name="Layer 1"><path d="m17.779 53.646c3.206 1.363 6.611 2.055 10.119 2.055 4.888 0 9.596-1.367 13.696-3.931 2.979 4.398 5.828 7.92 5.859 7.957.189.234.475.37.776.37s.586-.136.776-.369c.528-.65 12.939-16.011 12.939-23.306 0-5.763-3.566-10.85-8.919-12.844-.247-1.019-.538-2.004-.89-2.912-2.436-6.471-7.364-11.557-13.431-14.361-.134-.102-.284-.177-.453-.202-3.212-1.411-6.723-2.199-10.354-2.199-13.996-.001-25.428 11.164-25.876 25.055-.009.046 0 .091-.003.137-.006.235-.018.469-.018.706 0 10.416 6.194 19.775 15.779 23.845zm3.417-.905 3.382-1.166c1.177-.408 1.968-1.522 1.968-2.772 0-.591-.17-1.152-.481-1.606-.151-.229-.194-.5-.123-.762.072-.264.249-.476.496-.596l2.535-1.229c.765-.372 1.33-1.055 1.551-1.871.22-.814.076-1.686-.393-2.388l-.74-1.116c-.193-.299-.21-.682-.037-.982l1.283-2.274c.22-.38.667-.563 1.076-.441l2.804.821c0 .022-.002.043-.002.065 0 2.98 2.027 7.59 5.982 13.678-3.773 2.349-8.103 3.601-12.598 3.601-2.293 0-4.536-.326-6.702-.96zm38.749-16.319c0 5.616-8.985 17.563-11.716 21.062-1.129-1.448-3.329-4.343-5.512-7.63-4.059-6.104-6.203-10.75-6.203-13.433 0-.254.008-.499.023-.745.362-5.787 4.994-10.49 10.773-10.939.301-.023.61-.04.918-.04 1.245 0 2.472.197 3.648.586 4.825 1.579 8.067 6.056 8.067 11.139zm-9.412-14.262c.09.265.187.523.268.798-.643-.122-1.292-.199-1.943-.229.138-.175.316-.315.541-.358l1.133-.211zm-.737-1.898-.767.143c-.946.182-1.743.811-2.132 1.68l-.329.732c-6.079.742-10.961 5.496-11.892 11.503l-2.404-.703c-1.303-.379-2.688.182-3.373 1.37l-1.284 2.276c-.547.952-.51 2.124.104 3.068l.747 1.128c.152.228.197.496.127.757-.071.263-.248.475-.495.595l-2.535 1.229c-.762.372-1.327 1.052-1.55 1.866-.223.812-.084 1.684.391 2.405.095.138.143.303.143.491 0 .405-.245.752-.622.883l-5.696 1.964c-8.266-3.659-13.711-11.609-14.181-20.587l3.437 2.3c1.209.812 2.806.622 3.851-.519.261-.284.585-.309.739-.3.281.017.536.156.701.385l1.372 1.899c.51.704 1.298 1.145 2.162 1.206l3.365.246c.074.006.146.009.22.009.807 0 1.574-.331 2.131-.925l4.349-4.629c.828-.882 1.031-2.159.517-3.254l-.721-1.531c-.204-.434-.048-.946.364-1.193l2.717-1.631c.334-.199.763-.171 1.064.074l1.095.884c1.021.823 2.481.867 3.548.102l2.031-1.454c1.125-.805 1.532-2.256.991-3.531l-1.967-4.623c-.477-1.117-1.622-1.846-2.822-1.781l-4.045.173c-.258.012-.499-.08-.684-.258-.186-.178-.287-.416-.287-.672v-.82c0-.433.295-.806.715-.906l9.057-2.159c5.208 2.429 9.486 6.693 11.85 12.109zm-21.898-14.359c2.31 0 4.565.351 6.718.988l-6.19 1.476c-1.325.317-2.251 1.49-2.251 2.852v.82c0 .807.32 1.558.903 2.115.582.559 1.354.846 2.153.812l4.045-.173c.378-.008.745.212.896.566l1.966 4.622c.173.405.043.867-.314 1.123l-2.031 1.455c-.34.241-.803.228-1.128-.033l-1.095-.884c-.953-.769-2.3-.863-3.35-.232l-2.716 1.631c-1.298.777-1.789 2.395-1.146 3.761l.72 1.53c.164.348.1.753-.163 1.033l-4.35 4.629c-.193.206-.465.302-.745.291l-3.367-.246c-.274-.021-.524-.16-.687-.384l-1.372-1.899c-.519-.717-1.322-1.158-2.206-1.209-.892-.057-1.732.294-2.389 1.009-.313.342-.82.404-1.204.145l-4.567-3.058c.608-12.641 11.081-22.74 23.87-22.74z"/><path d="m18.302 11.412c.149 0 .302-.033.445-.104.266-.133.536-.259.81-.38.505-.223.734-.812.512-1.318-.223-.504-.812-.735-1.318-.512-.303.133-.601.272-.896.419-.494.247-.695.847-.449 1.342.176.351.529.554.896.554z"/><path d="m7.078 23.832c.105.036.214.053.319.053.417 0 .807-.263.947-.681 1.369-4.056 4.048-7.67 7.543-10.178.448-.322.552-.946.229-1.396s-.947-.553-1.396-.229c-3.832 2.749-6.771 6.714-8.271 11.164-.177.522.104 1.09.628 1.267z"/><path d="m40.014 36.419c0 4.53 3.686 8.216 8.216 8.216s8.216-3.686 8.216-8.216-3.686-8.216-8.216-8.216-8.216 3.686-8.216 8.216zm14.432 0c0 3.428-2.788 6.216-6.216 6.216s-6.216-2.788-6.216-6.216 2.788-6.216 6.216-6.216 6.216 2.788 6.216 6.216z"/></svg>
