<svg id="Layer_1" viewBox="0 0 168 168" xmlns="http://www.w3.org/2000/svg" data-name="Layer 1" width="300" height="300" version="1.1" xmlns:xlink="http://www.w3.org/1999/xlink" xmlns:svgjs="http://svgjs.dev/svgjs"><g width="100%" height="100%" transform="matrix(1,0,0,1,0,0)"><path d="m24.76788 97.21613q.31833.859.70349 1.69366a6.2008 6.2008 0 0 0 .88782 7.63318l3.09778 3.09784a6.19664 6.19664 0 0 0 7.63568.889q.832.384 1.69135.70245a6.20145 6.20145 0 0 0 6.02551 4.76782h.19049v-4h-.19049a2.19047 2.19047 0 0 1 -2.19043-2.19049 2.08514 2.08514 0 0 0 -1.46308-1.99359 19.55713 19.55713 0 0 1 -3.32013-1.37878 2.08528 2.08528 0 0 0 -2.44977.37231l-.00287.00293a2.19046 2.19046 0 0 1 -3.09784 0l-3.09772-3.09784a2.1905 2.1905 0 0 1 0-3.09778l.00293-.00287a2.08614 2.08614 0 0 0 .37231-2.44977 19.56149 19.56149 0 0 1 -1.37878-3.32007 2.08508 2.08508 0 0 0 -1.99364-1.46313 2.19047 2.19047 0 0 1 -2.19049-2.19039v-4.381a2.19049 2.19049 0 0 1 2.19049-2.19049 2.085 2.085 0 0 0 1.99365-1.463 19.5553 19.5553 0 0 1 1.37886-3.32012 2.08615 2.08615 0 0 0 -.37238-2.44977l-.00293-.00293a2.1905 2.1905 0 0 1 0-3.09778l3.09772-3.09778a2.19053 2.19053 0 0 1 3.09784-.00006l.00293.003a2.08528 2.08528 0 0 0 2.44982.37232 19.55405 19.55405 0 0 1 3.32-1.37885 2.08506 2.08506 0 0 0 1.46307-1.99359 2.19047 2.19047 0 0 1 2.19043-2.19049h.1905v-4h-.19049a6.20145 6.20145 0 0 0 -6.02551 4.76787q-.858.318-1.69165.70258a6.19587 6.19587 0 0 0 -7.63538.88879l-3.09778 3.09784a6.20126 6.20126 0 0 0 -.88812 7.63385q-.38443.83295-.70319 1.69312a6.2014 6.2014 0 0 0 -4.76788 6.02551v4.381a6.20151 6.20151 0 0 0 4.76788 6.0255z" fill="#2d4356" fill-opacity="1" data-original-color="#2d4356ff" stroke="none" stroke-opacity="1"/><path d="m45 82.29382v-4.1026a10.99068 10.99068 0 0 0 0 21.61778v-4.1026a6.99744 6.99744 0 0 1 0-13.4126z" fill="#c06c84" fill-opacity="1" data-original-color="#0bceb2ff" stroke="none" stroke-opacity="1"/><path d="m148 86.80963a6.20135 6.20135 0 0 0 -4.76782-6.02551q-.31842-.85913-.70355-1.69379a6.20072 6.20072 0 0 0 -.88776-7.63318l-3.09778-3.09784a6.19691 6.19691 0 0 0 -7.6358-.889q-.832-.384-1.69128-.70239a6.20135 6.20135 0 0 0 -6.02551-4.76782h-.1905v4h.19049a2.19049 2.19049 0 0 1 2.19049 2.19049 2.085 2.085 0 0 0 1.463 1.99359 19.55467 19.55467 0 0 1 3.32007 1.37885 2.08519 2.08519 0 0 0 2.44977-.37238l.003-.003a2.19046 2.19046 0 0 1 3.09778.00006l3.09778 3.09778a2.19044 2.19044 0 0 1 -.00006 3.09778l-.00287.00293a2.08606 2.08606 0 0 0 -.37238 2.44977 19.55507 19.55507 0 0 1 1.37878 3.32013 2.08514 2.08514 0 0 0 1.99365 1.463 2.19049 2.19049 0 0 1 2.1905 2.19053v4.381a2.19047 2.19047 0 0 1 -2.19049 2.19043 2.0852 2.0852 0 0 0 -1.99365 1.46307 19.55652 19.55652 0 0 1 -1.37878 3.32007 2.08606 2.08606 0 0 0 .37238 2.44977l.00287.00287a2.19044 2.19044 0 0 1 .00006 3.09778l-3.09778 3.09784a2.19039 2.19039 0 0 1 -3.09778 0l-.00293-.00293a2.08528 2.08528 0 0 0 -2.44977-.37231 19.55506 19.55506 0 0 1 -3.32013 1.37878 2.08508 2.08508 0 0 0 -1.463 1.99365 2.19049 2.19049 0 0 1 -2.19049 2.19049h-.19051v4h.19049a6.20135 6.20135 0 0 0 6.02551-4.76782q.85794-.318 1.69177-.70258a6.19584 6.19584 0 0 0 7.63525-.88885l3.09778-3.09784a6.20118 6.20118 0 0 0 .88812-7.63385q.38443-.833.70325-1.69305a6.20145 6.20145 0 0 0 4.76783-6.02554z" fill="#2d4356" fill-opacity="1" data-original-color="#2d4356ff" stroke="none" stroke-opacity="1"/><path d="m123 95.70642v4.10258a10.99068 10.99068 0 0 0 0-21.6178v4.1026a6.99744 6.99744 0 0 1 0 13.4126z" fill="#c06c84" fill-opacity="1" data-original-color="#0bceb2ff" stroke="none" stroke-opacity="1"/><path d="m85.38379 23.55579a2.00025 2.00025 0 0 0 -2.76758 0c-.21985.21088-17.4552 17.041-14.27838 35.967a14.261 14.261 0 0 0 -6.31439 11.60767c-.02344 8.55374-.02344 9.86966-.02344 9.86966a1.99949 1.99949 0 0 0 3.04785 1.70313l12.51758-7.70312h12.86914l12.51758 7.70313a1.99952 1.99952 0 0 0 3.04785-1.70314s0-1.31592-.02344-9.86963a14.261 14.261 0 0 0 -6.31439-11.60767c3.17683-18.92608-14.05853-35.75616-14.27838-35.96703zm-1.38379 4.31982a55.74554 55.74554 0 0 1 5.73352 7.4386 20.27587 20.27587 0 0 1 -5.73352.68591 20.27587 20.27587 0 0 1 -5.73352-.68591 55.74554 55.74554 0 0 1 5.73352-7.4386zm-17.99316 49.541c.00391-1.45508.00879-3.47754.0166-6.27539a9.88783 9.88783 0 0 1 3.39081-7.33691 30.98191 30.98191 0 0 0 4.62048 8.67255zm24.05078-6.4165h-12.11524c-9.219-11.48285-6.34448-23.51941-1.72693-32.19025 2.16455.9883 5.46289 1.19026 7.78455 1.19026s5.62-.202 7.78455-1.19025c4.61755 8.67084 7.49206 20.7074-1.72693 32.19025zm11.91895.14111c.00781 2.79785.0127 4.82031.0166 6.27539l-8.02789-4.93976a30.98117 30.98117 0 0 0 4.62054-8.67267 9.888 9.888 0 0 1 3.39074 7.33706z" fill="#2d4356" fill-opacity="1" data-original-color="#2d4356ff" stroke="none" stroke-opacity="1"/><path d="m84 48.00012a7 7 0 1 0 7 7 7.00818 7.00818 0 0 0 -7-7zm0 10a3 3 0 1 1 3-3 3.00328 3.00328 0 0 1 -3 3z" fill="#c06c84" fill-opacity="1" data-original-color="#0bceb2ff" stroke="none" stroke-opacity="1"/><path d="m84 93.00012a2.00059 2.00059 0 0 0 1.78906-1.10547l5-10a2.00023 2.00023 0 0 0 -3.57812-1.78906l-3.21094 6.42241-3.21094-6.42236a2.00023 2.00023 0 0 0 -3.57812 1.78906l5 10a2.00059 2.00059 0 0 0 1.78906 1.10542z" fill="#c06c84" fill-opacity="1" data-original-color="#0bceb2ff" stroke="none" stroke-opacity="1"/><path d="m100.17676 124.00012a2 2 0 0 0 0 4 10.69052 10.69052 0 1 0 0-21.37939q-.47314 0-.94141.04053a10.83751 10.83751 0 0 0 -21.30762-2.61626 8.44189 8.44189 0 0 0 -1.1582-.07959 8.35472 8.35472 0 0 0 -6.39353 2.95659 10.90289 10.90289 0 0 0 -2.55273-.30127 10.69052 10.69052 0 1 0 0 21.37939 2 2 0 0 0 0-4 6.691 6.691 0 1 1 0-13.37939 6.89036 6.89036 0 0 1 2.60449.5083 2.00451 2.00451 0 0 0 2.51172-.90234 4.37273 4.37273 0 0 1 5.76953-1.80713 1.99994 1.99994 0 0 0 2.88281-1.77979 6.82368 6.82368 0 0 1 13.64355.0498 6.55981 6.55981 0 0 1 -.30273 1.97705 1.99981 1.99981 0 0 0 2.65332 2.457 6.91768 6.91768 0 0 1 2.59082-.50293 6.691 6.691 0 1 1 0 13.37939z" fill="#2d4356" fill-opacity="1" data-original-color="#2d4356ff" stroke="none" stroke-opacity="1"/><path d="m79 139.00012a2 2 0 0 0 0 4h10a2 2 0 0 0 0-4z" fill="#c06c84" fill-opacity="1" data-original-color="#0bceb2ff" stroke="none" stroke-opacity="1"/><g fill="#2d4356"><path d="m82.58782 10.19658a3 3 0 1 0 -3-3 3.00344 3.00344 0 0 0 3 3zm0-4.5a1.5 1.5 0 1 1 -1.5 1.5 1.50148 1.50148 0 0 1 1.5-1.5z" fill="#2d4356" fill-opacity="1" data-original-color="#2d4356ff" stroke="none" stroke-opacity="1"/><path d="m35.25448 3a2 2 0 1 0 2 2 2.00229 2.00229 0 0 0 -2-2zm0 3a1 1 0 1 1 1-1 1.001 1.001 0 0 1 -1 1z" fill="#2d4356" fill-opacity="1" data-original-color="#2d4356ff" stroke="none" stroke-opacity="1"/><path d="m135.7003 3.86325a2 2 0 1 0 2 2 2.00229 2.00229 0 0 0 -2-2zm0 3a1 1 0 1 1 1-1 1.001 1.001 0 0 1 -1 1z" fill="#2d4356" fill-opacity="1" data-original-color="#2d4356ff" stroke="none" stroke-opacity="1"/><path d="m115.53363 20.68a2 2 0 1 0 2 2 2.00229 2.00229 0 0 0 -2-2zm0 3a1 1 0 1 1 1-1 1.001 1.001 0 0 1 -1 1z" fill="#2d4356" fill-opacity="1" data-original-color="#2d4356ff" stroke="none" stroke-opacity="1"/><path d="m23.42115 44.36325a2 2 0 1 0 -2 2 2.00229 2.00229 0 0 0 2-2zm-3 0a1 1 0 1 1 1 1 1.001 1.001 0 0 1 -1-1z" fill="#2d4356" fill-opacity="1" data-original-color="#2d4356ff" stroke="none" stroke-opacity="1"/></g><path d="m54.415 24.011 1.487-1.955-.939-.532-.954 2.19h-.032l-.969-2.175-.956.548 1.472 1.909v.031l-2.301-.297v1.064l2.316-.297v.031l-1.487 1.908.892.564 1.018-2.206h.03l.939 2.19.986-.563-1.502-1.878v-.031l2.362.282v-1.064l-2.362.312z" fill="#c06c84" fill-opacity="1" data-original-color="#0bceb2ff" stroke="none" stroke-opacity="1"/><path d="m6.563 16.482-.856 1.099.513.324.586-1.271h.018l.541 1.262.568-.324-.865-1.082v-.018l1.36.162v-.612l-1.36.18v-.018l.856-1.126-.541-.306-.549 1.261h-.019l-.558-1.253-.55.316.847 1.099v.018l-1.325-.171v.612l1.334-.171z" fill="#c06c84" fill-opacity="1" data-original-color="#0bceb2ff" stroke="none" stroke-opacity="1"/><path d="m141.149 42.164v-1.043l-2.317.306v-.03l1.458-1.918-.921-.522-.936 2.148h-.031l-.951-2.133-.937.537 1.443 1.873v.03l-2.257-.291v1.043l2.272-.291v.03l-1.458 1.872.875.553.998-2.164h.03l.921 2.149.967-.553-1.473-1.842v-.03z" fill="#c06c84" fill-opacity="1" data-original-color="#0bceb2ff" stroke="none" stroke-opacity="1"/><path d="m160.773 20.151 1.257-1.654-.794-.45-.807 1.852h-.027l-.821-1.84-.808.464 1.245 1.615v.027l-1.947-.252v.9l1.96-.251v.026l-1.258 1.615.755.477.861-1.867h.026l.794 1.853.834-.476-1.27-1.589v-.026l1.998.238v-.9l-1.998.265z" fill="#c06c84" fill-opacity="1" data-original-color="#0bceb2ff" stroke="none" stroke-opacity="1"/><circle cx="2" cy="149" fill="#2d4356" r="2" fill-opacity="1" data-original-color="#2d4356ff" stroke="none" stroke-opacity="1"/><path d="m11 147h-3a2 2 0 0 0 0 4h3a2 2 0 0 0 0-4z" fill="#2d4356" fill-opacity="1" data-original-color="#2d4356ff" stroke="none" stroke-opacity="1"/><path d="m160 147h-3a2 2 0 0 0 0 4h3a2 2 0 0 0 0-4z" fill="#2d4356" fill-opacity="1" data-original-color="#2d4356ff" stroke="none" stroke-opacity="1"/><circle cx="166" cy="149" fill="#2d4356" r="2" fill-opacity="1" data-original-color="#2d4356ff" stroke="none" stroke-opacity="1"/><path d="m118.15387 155h-8.30774a2.00641 2.00641 0 0 0 0 4h8.30774a2.00641 2.00641 0 0 0 0-4z" fill="#c06c84" fill-opacity="1" data-original-color="#0bceb2ff" stroke="none" stroke-opacity="1"/><path d="m58.15387 155h-8.30774a2.00641 2.00641 0 0 0 0 4h8.30774a2.00641 2.00641 0 0 0 0-4z" fill="#c06c84" fill-opacity="1" data-original-color="#0bceb2ff" stroke="none" stroke-opacity="1"/><path d="m104 155h-40a2 2 0 0 0 0 4h15.94v2h-7.94a2 2 0 0 0 0 4h25a2 2 0 0 0 0-4h-8.94v-2h15.94a2 2 0 0 0 0-4z" fill="#c06c84" fill-opacity="1" data-original-color="#0bceb2ff" stroke="none" stroke-opacity="1"/><path d="m150.72131 147h-32.80371a7.94042 7.94042 0 0 0 1.0824-3.99988v-102a8.00917 8.00917 0 0 0 -8-8h-13.26868q1.112 1.93378 2.08136 4h11.18732a4.00427 4.00427 0 0 1 4 4v102a4.00422 4.00422 0 0 1 -3.99878 3.99988h-54.00244a4.00422 4.00422 0 0 1 -3.99878-3.99988v-102a4.00427 4.00427 0 0 1 4-4h11.18732q.96524-2.06131 2.08136-4h-13.26868a8.00917 8.00917 0 0 0 -8 8v102a7.94042 7.94042 0 0 0 1.0824 3.99988h-32.80371a2.017 2.017 0 1 0 0 4h133.44262a2.017 2.017 0 1 0 0-4z" fill="#2d4356" fill-opacity="1" data-original-color="#2d4356ff" stroke="none" stroke-opacity="1"/></g></svg>
