<svg clip-rule="evenodd" fill-rule="evenodd" stroke-linejoin="round" stroke-miterlimit="2" viewBox="0 0 510 510" xmlns="http://www.w3.org/2000/svg" width="300" height="300" version="1.1" xmlns:xlink="http://www.w3.org/1999/xlink" xmlns:svgjs="http://svgjs.dev/svgjs"><g width="100%" height="100%" transform="matrix(1,0,0,1,0,0)"><path d="m142.932 403.153h-97.447c-21.162 0-38.485-17.323-38.485-38.485v-209.656c0-21.162 17.323-38.485 38.485-38.485h35.699c4.416 0 8 3.585 8 8s-3.584 8-8 8h-35.699c-12.364 0-22.485 10.121-22.485 22.485v209.656c0 12.364 10.121 22.485 22.485 22.485h234.68c4.415 0 8 3.585 8 8 0 3.211-1.896 5.983-4.629 7.256v33.92c2.733 1.273 4.629 4.045 4.629 7.256 0 4.415-3.585 8-8 8h-175.62c-9.473 0-17.992 5.181-17.992 12.745v12.771h261.362c4.415 0 8 3.585 8 8 0 4.416-3.585 8-8 8h-269.362c-4.418 0-8-3.581-8-8v-20.771c0-15.272 14.867-28.745 33.992-28.745h38.387zm124.604 0h-108.604v32.432h108.604zm-18.732-145.331c-.23.434-.464.866-.701 1.296l5.317 12.004c1.339 3.023.68 6.559-1.658 8.897l-18.533 18.533c-2.338 2.338-5.874 2.997-8.897 1.658 0 0-11.991-5.311-11.99-5.312-5.924 3.28-12.207 5.879-18.718 7.754l-4.708 12.231c-1.188 3.089-4.156 5.127-7.466 5.127h-26.216c-3.309 0-6.277-2.038-7.466-5.127 0 0-4.707-12.23-4.706-12.23-6.523-1.879-12.797-4.489-18.732-7.76l-12.004 5.317c-3.023 1.339-6.559.68-8.897-1.658l-18.533-18.533c-2.341-2.341-2.998-5.882-1.653-8.907 0 0 5.33-11.987 5.33-11.986-3.278-5.921-5.877-12.2-7.765-18.708l-12.243-4.712c-3.088-1.188-5.126-4.156-5.126-7.466v-26.216c0-3.309 2.038-6.277 5.126-7.466 0 0 12.24-4.71 12.24-4.71 1.889-6.523 4.489-12.796 7.77-18.73l-5.332-11.992c-1.345-3.025-.688-6.566 1.653-8.907l13.442-13.441v-99.578c0-11.163 9.138-20.301 20.301-20.301h257.888c11.166 0 20.285 9.135 20.285 20.301v56.427h82.847c12.821 0 23.341 10.52 23.341 23.425v325.022c0 12.906-10.52 23.426-23.341 23.426h-163.078c-12.849 0-23.362-10.523-23.362-23.426v-184.252zm-134.466-126.899c3.412 1.517 9.99 4.442 9.989 4.442 5.934-3.28 12.205-5.878 18.712-7.753l4.732-12.263c1.19-3.086 4.156-5.12 7.463-5.12h26.216c3.311 0 6.28 2.04 7.468 5.13l4.708 12.255c6.505 1.875 12.773 4.472 18.704 7.751l11.992-5.332c3.025-1.345 6.566-.688 8.907 1.653l18.533 18.533c2.338 2.338 2.997 5.874 1.658 8.897 0 0-5.313 11.996-5.314 11.996 3.283 5.937 5.883 12.214 7.759 18.74l12.228 4.706c3.089 1.189 5.127 4.157 5.127 7.466v26.216c0 3.31-2.038 6.278-5.127 7.466 0 0-12.233 4.709-12.233 4.708-.136.47-.276.94-.419 1.408h37.778v-124.77c0-12.902 10.513-23.425 23.362-23.425h64.231v-16.835h-266.474zm266.474-70.131v-23.592c0-2.362-1.923-4.301-4.285-4.301h-257.888c-2.365 0-4.301 1.936-4.301 4.301v23.592zm-200.652 76.384s-4.206-10.947-4.206-10.947h-15.232l-4.228 10.958c-.949 2.459-3.049 4.293-5.614 4.903-7.725 1.836-15.091 4.888-21.862 9.06-2.248 1.385-5.035 1.572-7.447.499l-10.714-4.764-10.762 10.762 4.764 10.714c1.073 2.412.886 5.199-.499 7.447-4.176 6.777-7.229 14.15-9.091 21.906-.614 2.559-2.448 4.653-4.905 5.599l-10.925 4.205v15.229l10.925 4.205c2.455.945 4.288 3.036 4.904 5.594 1.861 7.728 4.911 15.124 9.085 21.874 1.391 2.249 1.581 5.041.506 7.458l-4.764 10.713 10.768 10.768 10.718-4.748c2.404-1.065 5.177-.88 7.419.493 6.776 4.152 14.147 7.232 21.901 9.069 2.57.609 4.673 2.447 5.622 4.911l4.205 10.926h15.229l4.205-10.926c.948-2.462 3.049-4.299 5.616-4.909 7.721-1.835 15.108-4.883 21.852-9.053 2.246-1.389 5.033-1.58 7.447-.511 0 0 10.718 4.748 10.718 4.748l10.774-10.774-4.748-10.718c-1.065-2.403-.88-5.177.493-7.419 4.152-6.777 7.233-14.149 9.071-21.88.61-2.567 2.447-4.668 4.91-5.616l10.925-4.205v-15.229l-10.925-4.205c-2.465-.949-4.303-3.052-4.911-5.622-1.836-7.747-4.887-15.113-9.059-21.883-1.383-2.245-1.572-5.027-.504-7.437l4.748-10.718-10.768-10.768-10.713 4.764c-2.413 1.073-5.199.886-7.447-.499-6.771-4.172-14.138-7.224-21.863-9.06-2.568-.611-4.671-2.449-5.618-4.914zm-11.831 24.217c29.685 0 53.753 24.042 53.753 53.726 0 29.683-24.07 53.752-53.753 53.752-29.684 0-53.726-24.067-53.726-53.752 0-29.686 24.04-53.726 53.726-53.726zm0 16c-20.845 0-37.726 16.881-37.726 37.726 0 20.847 16.88 37.752 37.726 37.752 20.848 0 37.753-16.904 37.753-37.752 0-20.846-16.906-37.726-37.753-37.726zm-28.559-123.372c-3.955 0-7.183-3.213-7.183-7.168s3.228-7.183 7.183-7.183 7.184 3.228 7.184 7.183-3.229 7.168-7.184 7.168zm27.573 0c-3.955 0-7.184-3.213-7.184-7.168s3.229-7.183 7.184-7.183 7.167 3.228 7.167 7.183-3.212 7.168-7.167 7.168zm27.556 0c-3.955 0-7.183-3.213-7.183-7.168s3.228-7.183 7.183-7.183 7.184 3.228 7.184 7.183-3.229 7.168-7.184 7.168zm140.349 55.606h-18.667c-4.061 0-7.362 3.347-7.362 7.425v325.022c0 4.078 3.301 7.426 7.362 7.426h163.078c4.048 0 7.341-3.351 7.341-7.426v-325.022c0-4.075-3.293-7.425-7.341-7.425h-18.688l-7.339 13.855c-2.95 5.569-8.736 9.051-15.037 9.051h-80.97c-6.302 0-12.088-3.482-15.038-9.051zm107.617 0h-89.511l3.372 6.366c.176.332.522.54.899.54h80.97c.376 0 .722-.208.898-.541zm-91.866 169.638c-3.122-3.122-3.122-8.191 0-11.313s8.191-3.122 11.313 0l25.949 25.949 45.646-45.646c3.122-3.122 8.191-3.122 11.314 0 3.122 3.122 3.122 8.192 0 11.314l-51.303 51.302c-3.124 3.124-8.189 3.124-11.313 0zm26.862 150.214c-4.415 0-8-3.584-8-8 0-4.415 3.585-8 8-8h40.518c4.416 0 8 3.585 8 8 0 4.416-3.584 8-8 8zm-329.381-271.445v177.781h231.685c4.415 0 8 3.585 8 8 0 4.416-3.585 8-8 8h-239.685c-4.418 0-8-3.581-8-8v-189.556c0-6.76 5.492-12.225 12.252-12.225h18.125c4.415 0 8 3.585 8 8 0 4.416-3.585 8-8 8z" fill="url(#SvgjsLinearGradient1362)" fill-opacity="1" data-original-color="#000000ff" stroke="none" stroke-opacity="1"/></g><defs><linearGradient id="SvgjsLinearGradient1362"><stop stop-opacity="1" stop-color="#355c7d" offset="0"/><stop stop-opacity="1" stop-color="#c06c84" offset="1"/></linearGradient></defs></svg>
