<?xml version="1.0" encoding="UTF-8"?>
<svg xmlns="http://www.w3.org/2000/svg" id="Outline" viewBox="0 0 512 512" width="512" height="512"><path d="M488,16H136a8,8,0,0,0-8,8V52.686L102.143,26.829a36.971,36.971,0,0,0-52.286,0L26.829,49.857a36.971,36.971,0,0,0,0,52.285L116.686,192H104a8,8,0,0,0-8,8v22.006q-2.371.925-4.69,1.989L77.657,210.343a8,8,0,0,0-11.314,0l-32,32a8,8,0,0,0,0,11.314L48,267.309q-1.062,2.314-1.989,4.691H24a8,8,0,0,0-8,8v48a8,8,0,0,0,8,8H46.006q.925,2.373,1.989,4.691L34.343,354.343a8,8,0,0,0,0,11.314l32,32a8,8,0,0,0,11.314,0L91.31,384.005q2.314,1.062,4.69,1.989V456a40.045,40.045,0,0,0,40,40H456a40.045,40.045,0,0,0,40-40V24A8,8,0,0,0,488,16ZM200.686,148,192,156.686,111.314,76,120,67.314ZM236.6,236.6l-23.48-6.4L230.2,213.119ZM195.34,225.346,178.5,220.754a56.1,56.1,0,0,1-18.774-9.169l51.856-51.856a56.1,56.1,0,0,1,9.169,18.773l4.592,16.838ZM51.314,104,104,51.314,108.686,56,56,108.686ZM100,87.314,180.686,168,168,180.686,87.314,100ZM38.143,61.171,61.172,38.142a20.97,20.97,0,0,1,29.656,0L92.686,40,40,92.686l-1.857-1.857a20.97,20.97,0,0,1,0-29.658ZM76,111.314,156.686,192,148,200.686,67.313,120ZM128,320a16,16,0,0,1,0-32Zm0-48a32,32,0,0,0,0,64v16a48,48,0,0,1,0-96ZM93.561,367.247a8,8,0,0,0-9.488,1.366L72,380.686,51.313,360l12.075-12.073a8,8,0,0,0,1.365-9.489,71.386,71.386,0,0,1-5.449-12.83A8,8,0,0,0,51.67,320H32V288H51.67a8,8,0,0,0,7.634-5.608,71.386,71.386,0,0,1,5.449-12.83,8,8,0,0,0-1.365-9.489L51.313,248,72,227.314l12.073,12.073a8,8,0,0,0,9.488,1.366,71.454,71.454,0,0,1,12.831-5.449A8,8,0,0,0,112,227.67V208h16v32a64,64,0,0,0,0,128v32H112V380.33a8,8,0,0,0-5.608-7.634A71.454,71.454,0,0,1,93.561,367.247ZM136,480a24.028,24.028,0,0,1-24-24V416H416v40a39.794,39.794,0,0,0,8.019,24ZM304,312a8,8,0,1,1,8,8A8.009,8.009,0,0,1,304,312Zm40,72v16H280V384Zm136,72a24,24,0,0,1-48,0V408a8,8,0,0,0-8-8H360V376a8,8,0,0,0-8-8H320V334.624A24.116,24.116,0,0,0,334.624,320H352v24a8,8,0,0,0,8,8h80a8,8,0,0,0,8-8V280a8,8,0,0,0-8-8H360a8,8,0,0,0-8,8v24H334.624a24,24,0,0,0-45.248,0H272V280a8,8,0,0,0-8-8H184a8,8,0,0,0-8,8v64a8,8,0,0,0,8,8h80a8,8,0,0,0,8-8V320h17.376A24.116,24.116,0,0,0,304,334.624V368H272a8,8,0,0,0-8,8v24H144V219.26a72.135,72.135,0,0,0,30.293,16.93l71.6,19.528A7.971,7.971,0,0,0,248,256H376a8,8,0,0,0,8-8V224h56a8,8,0,0,0,8-8V72a8,8,0,0,0-8-8H376a8,8,0,0,0-8,8V240H254.11l-8.727-32H328a8,8,0,0,0,0-16H241.019l-4.364-16H328a8,8,0,0,0,0-16H230.582a72.111,72.111,0,0,0-11.322-16H248a8,8,0,0,0,0-16H216a8,8,0,0,0-7.486,5.2L144,68.686V32H480ZM368,336V288h64v48ZM256,288v48H192V288Zm128-80V80h48V208Z"/><path d="M232,80h32a8,8,0,0,0,0-16H232a8,8,0,0,0,0,16Z"/><path d="M216,112H328a8,8,0,0,0,0-16H216a8,8,0,0,0,0,16Z"/><path d="M296,80h32a8,8,0,0,0,0-16H296a8,8,0,0,0,0,16Z"/><path d="M328,128H280a8,8,0,0,0,0,16h48a8,8,0,0,0,0-16Z"/></svg>
